<svg width="40" height="40" viewBox="0 0 40 40" fill="none" xmlns="http://www.w3.org/2000/svg"><rect fill="#FF4339" width="40" height="40" rx="12"/><g transform="translate(4 4)"><circle cx="16" cy="16" r="14" fill="#fff"/><svg width="32" height="32" viewBox="0 0 32 32" xmlns="http://www.w3.org/2000/svg"><path d="M16 32c8.837 0 16-7.163 16-16S24.837 0 16 0 0 7.163 0 16s7.163 16 16 16z" fill="#FF4339"/><path d="M7 24.718V8h17.267v16.657l-5.186-3.844V16.42l.976-.732-4.393-3.356-4.393 3.356.915.793v4.393L7 24.718z" fill="#fff"/><path d="M15.603 15.505h.061c1.098 0 2.014.915 1.952 2.074v2.258l-2.013-1.526-2.013 1.526v-2.258c0-1.159.915-2.074 2.013-2.074z" fill="#fff"/></svg></g></svg>