<svg width="40" height="40" viewBox="0 0 40 40" fill="none" xmlns="http://www.w3.org/2000/svg"><rect fill="#2EB6EA" width="40" height="40" rx="12"/><g transform="translate(4 4)"><circle cx="16" cy="16" r="14" fill="#fff"/><svg width="32" height="32" viewBox="0 0 32 32" xmlns="http://www.w3.org/2000/svg"><circle cx="16" cy="16" r="16" fill="#2EB6EA"/><path fill-rule="evenodd" clip-rule="evenodd" d="M17.409 20.129c.373-.348.595-.829.617-1.339 0-1.006-.7-1.378-1.94-1.943l-.062-.03-.777-.34c-1.561-.706-3.214-1.646-3.24-3.895v-.054a3.866 3.866 0 01.509-1.942 4.062 4.062 0 012.362-1.833V5.997H6.395A.396.396 0 006 6.392v9.631a10.03 10.03 0 007.226 9.62l.036.01a10.096 10.096 0 001.617.323v-2.76a4.68 4.68 0 01-3.533-3.771l-.125-.618 2.763-.78.108.767a2.014 2.014 0 001.937 1.834 1.942 1.942 0 001.38-.52zm5.325 3.34A10.024 10.024 0 0018.69 6.362l-.053-.013a.576.576 0 00-.095-.024l-.07-.017a8.625 8.625 0 00-.664-.143v2.617a4.435 4.435 0 012.474 2.13l.298.553-2.284 1.465-.354-.615a1.71 1.71 0 00-1.655-1.076 1.39 1.39 0 00-1.478 1.34c0 .631.705 1 1.63 1.414l.863.383c1.707.748 3.527 1.755 3.527 4.277a4.65 4.65 0 01-1.24 3.184 4.757 4.757 0 01-1.78 1.194v2.853a10.01 10.01 0 004.925-2.415z" fill="#fff"/></svg></g></svg>