<svg width="40" height="40" viewBox="0 0 40 40" fill="none" xmlns="http://www.w3.org/2000/svg"><rect fill="#5284FF" width="40" height="40" rx="12"/><g transform="translate(4 4)"><circle cx="16" cy="16" r="14" fill="#fff"/><svg width="32" height="32" viewBox="0 0 32 32" xmlns="http://www.w3.org/2000/svg"><g clip-path="url(#clip0_308_5590)"><path d="M-4 8C-4 1.373 1.373-4 8-4h16c6.627 0 12 5.373 12 12v16c0 6.627-5.373 12-12 12H8C1.373 36-4 30.627-4 24V8z" fill="#5284FF"/><path d="M7.87 9.623c.23-.415.56-.769.964-1.03L15.602 4 8.667 15.144s-.606-.995-.842-1.499a4.653 4.653 0 01.046-4.022zm-2.793 7.688a7.342 7.342 0 00.909 3.043 7.562 7.562 0 002.12 2.407l7.487 5.072s-4.684-6.56-8.634-13.087a6.469 6.469 0 01-.794-2.226 3.463 3.463 0 010-1.068c-.103.185-.303.565-.303.565a8.465 8.465 0 00-.809 2.517 14.96 14.96 0 00.024 2.777zm19.087.883c-.242-.503-.842-1.499-.842-1.499L16.4 27.833l6.769-4.59a2.9 2.9 0 00.963-1.03 4.655 4.655 0 00.046-4.022l-.013.003zm2.748-3.668a7.341 7.341 0 00-.909-3.043 7.562 7.562 0 00-2.12-2.407L16.408 4s4.681 6.56 8.635 13.087a6.47 6.47 0 01.79 2.226c.056.354.056.714 0 1.069.104-.186.304-.566.304-.566.4-.794.673-1.643.809-2.517.079-.924.071-1.854-.022-2.776l-.012.002z" fill="#fff"/></g><defs><clipPath id="clip0_308_5590"><rect width="32" height="32" rx="16" fill="#fff"/></clipPath></defs></svg></g></svg>