<svg width="40" height="40" viewBox="0 0 40 40" fill="none" xmlns="http://www.w3.org/2000/svg"><rect fill="#010304" width="40" height="40" rx="12"/><g transform="translate(4 4)"><circle cx="16" cy="16" r="14" fill="#fff"/><svg width="32" height="32" viewBox="0 0 32 32" xmlns="http://www.w3.org/2000/svg"><g clip-path="url(#clip0_261:1052)"><circle cx="16" cy="16" r="16" fill="#010304"/><path d="M10.532 6.282l5.502 6.446 3.69-2.172s-4.456-5.955-5.64-5.535a191.68 191.68 0 01-3.552 1.261zM19.864 10.556s.836-1.471 1.253-3.433c0 0 4.179 1.682 2.577 5.886l-3.83-2.453z" fill="#fff"/><path d="M23.694 13.009l.348 4.414 1.602-.21s.418-.14.348-.911c-.07-.841-.209-2.593-.209-2.593s.07-.42-.905-.56c-1.184-.21-1.184-.14-1.184-.14z" fill="#fff"/><path d="M24.042 17.423l-3.203 2.592 1.462 2.873s.349 1.12 1.393-.14c.975-1.262 1.393-1.472 1.323-2.242-.07-.771-.278-2.593-.975-3.083zM20.77 20.015l-4.388-1.962-3.83 7.777s-.278.56.696.63c.975.141 2.577.491 3.413-.35.835-.77 4.108-6.095 4.108-6.095zM16.382 17.983l-.418-5.185-9.47.631s-.558.07-.488 1.121c.07 1.401.209 2.943.209 2.943s-.07.63 1.184.7c1.253.07 8.844.07 8.983-.21z" fill="#fff"/></g><defs><clipPath id="clip0_261:1052"><rect width="32" height="32" rx="16" fill="#fff"/></clipPath></defs></svg></g></svg>