<svg width="40" height="40" viewBox="0 0 40 40" fill="none" xmlns="http://www.w3.org/2000/svg"><rect fill="#101211" width="40" height="40" rx="12"/><g transform="translate(4 4)"><circle cx="16" cy="16" r="14" fill="#fff"/><svg width="32" height="32" viewBox="0 0 32 32" xmlns="http://www.w3.org/2000/svg"><g clip-path="url(#clip0_262:1065)"><circle cx="16" cy="16" r="16" fill="#101211"/><path fill-rule="evenodd" clip-rule="evenodd" d="M22.292 17.067L16 7l-4.113 6.581c.03.292.079.588.15.884.249 1.028.77 2.083 1.722 3.042 2.8-1.67 5.379-1.658 7.476-.901.369.133.721.289 1.057.461zm1.574 2.518c-.773-.751-1.808-1.49-3.035-1.932a6.891 6.891 0 00-2.768-.408c.04 3.32-1.367 5.5-3.19 6.848-.25.185-.507.353-.768.507H27l-3.134-5.015zM11.136 24.6c.997-.248 2.081-.689 3.035-1.394a6.477 6.477 0 002.146-2.69c-3.175-1.379-4.733-3.42-5.326-5.502L5 24.6h6.136z" fill="#fff"/></g><defs><clipPath id="clip0_262:1065"><rect width="32" height="32" rx="16" fill="#fff"/></clipPath></defs></svg></g></svg>