<svg width="40" height="40" viewBox="0 0 40 40" fill="none" xmlns="http://www.w3.org/2000/svg"><rect fill="#050708" width="40" height="40" rx="12"/><g transform="translate(4 4)"><circle cx="16" cy="16" r="14" fill="#fff"/><svg width="32" height="32" viewBox="0 0 32 32" xmlns="http://www.w3.org/2000/svg"><g clip-path="url(#clip0_262:1083)"><circle cx="16" cy="16" r="16" fill="#050708"/><path fill-rule="evenodd" clip-rule="evenodd" d="M15.847 5.347a.863.863 0 01.66.15l9.16 6.268A.75.75 0 0126 12.4v7.2a.76.76 0 01-.364.66c-3.042 2.084-6.084 4.166-9.128 6.247-.3.227-.754.209-1.044-.024-3.03-2.075-6.062-4.15-9.094-6.223a.783.783 0 01-.368-.659v-7.196a.784.784 0 01.366-.659l9.095-6.225a.984.984 0 01.385-.173zm-.11 19.408c-.013.338-.005.676-.005 1.014.157.002.315.002.472 0 .002-.331.002-.662 0-.993a5.732 5.732 0 00-.467-.021zm-1.799-.89h-.265c.188.306.37.616.563.919.159-.001.317-.001.475-.01-.126-.322-.343-.602-.507-.907a19.568 19.568 0 00-.53-.002h.264zm2.87.464c-.002.148-.002.296.004.445h.442c.02-.144.02-.29.018-.434a6.674 6.674 0 00-.463-.01zm-.5-2.382c-.664.005-1.327-.004-1.991.005-.002.14-.002.278 0 .418.587.012 1.176.002 1.764.005v.998c-.122 0-.242-.004-.362.008-.035.132-.017.27-.02.404.213.006.426.005.638 0 .066-.066.131-.132.198-.197 0-.476-.002-.951.001-1.426a49.838 49.838 0 00-.228-.215zm3.52.558c-.15-.067-.31-.298-.486-.16-.523.322-1.062.62-1.578.952.001.136.003.274.013.411.483.004.967.006 1.45 0 .003-.146.003-.292.002-.437-.12-.003-.238-.004-.357-.004l-.222.002c.384-.25.786-.474 1.179-.711v-.053zm-6.886.241L12 22.75a11.24 11.24 0 000 .438c.628.003 1.255.007 1.884-.002v-.435c-.628-.006-1.256-.003-1.884-.001l.942-.003zm-1.582-.637l-.233.001a13.63 13.63 0 000 .439c.155.002.31.001.467 0 .002-.147.002-.292 0-.438-.156-.002-.312-.003-.467 0l.233-.002zm9.045-1.565c-.006.238-.004.477-.003.716.253.36.5.72.756 1.077.212-.301.42-.607.636-.907.041-.066.105-.13.1-.21.005-.22.002-.438-.004-.656l-.601.874c-.044.055-.076.127-.148.156-.253-.345-.488-.702-.736-1.05zm-1.51-.537c-.297.002-.592-.002-.888.004a75.368 75.368 0 01-.542 1.781l.457.002.409-1.377.248.012.403 1.362c.152.003.305.003.457.003l-.545-1.787zm-9.005 1l-.622.008v.43c.412.007.825.016 1.236-.003.02-.143.01-.288.008-.431-.415-.003-.83-.01-1.244.004l.622-.008zm3.108-1.017c-.571.328-1.134.669-1.697 1.007-.002.14-.002.28.002.42.887.008 1.775.004 2.662.002.005-.148.004-.295.001-.442-.599-.009-1.198.004-1.796-.007.413-.232.814-.482 1.223-.72-.13-.09-.263-.174-.395-.26zm2-.324l-.236.002c-.006.545 0 1.09-.003 1.635l.142.024c.111-.01.223-.014.334-.019l-.002-1.64a23.11 23.11 0 00-.47 0l.235-.002zm1.45.404a3.68 3.68 0 01-.493.028c.186.302.37.605.552.91.154-.002.309-.002.463-.003-.1-.34-.328-.636-.521-.935zm6.273.207l-.242.003c-.003.144-.003.287 0 .43.161.007.323.007.485.003v-.434a9.812 9.812 0 00-.485.001l.242-.003zm-11.355-1.738c-.259.35-.492.717-.753 1.065-.243-.353-.49-.705-.735-1.057-.008.241-.005.483-.003.725.255.343.492.697.737 1.047.264-.348.5-.715.757-1.068-.002-.237.002-.475-.003-.712zm1.441.46h-.232c-.009.15-.008.3-.003.451.156.002.312.002.467 0a8.989 8.989 0 000-.44 5.42 5.42 0 00-.464-.01h.232zm6.207-1.186c-.08.066-.158.135-.236.203 0 .194-.001.387.004.58.15 0 .301 0 .452-.002.003-.12.004-.239.003-.358h1.057c-.005.393-.002.784-.002 1.176.153.005.306.005.46.004v-1.398l-.229-.204c-.503 0-1.006.002-1.51-.001zm-11.787-.279h-.296l-.224.205c.003.475-.009.951.005 1.427.039.085.126.16.212.206.516.014 1.033.001 1.55.006h.432c.001-.139.001-.276-.001-.413-.582-.007-1.164-.002-1.746-.003-.005-.334 0-.667-.003-1 .123-.002.245-.002.368-.005v-.42a24.355 24.355 0 00-.593-.002h.296zm10.163.368l-1.698 1.022c.001.14.001.282.024.422.885 0 1.77.003 2.654-.002a8.104 8.104 0 000-.457c-.59-.007-1.182.004-1.773-.006.395-.246.806-.468 1.193-.723-.135-.082-.267-.17-.4-.256zm6.303-.067c-.563.332-1.126.664-1.684 1.004-.002.142-.002.285 0 .428.884.002 1.768.002 2.651-.001a22.69 22.69 0 000-.444c-.594-.004-1.189.002-1.783-.003l1.214-.724a13.784 13.784 0 00-.398-.26zM13.22 15.91l-.232.002a270.93 270.93 0 000 2.485c.157.004.314.004.472.003.019-.552-.029-1.107.03-1.657.32.506.67.995 1.004 1.494l.162-.003c-.026-.225.07-.486-.09-.68-.373-.546-.748-1.09-1.113-1.641-.155-.003-.31-.003-.465-.001l.232-.002zm8.615.897c-.154-.022-.311-.013-.466-.01a75.906 75.906 0 000 1.538c.156.003.313.004.47 0 .002-.509.011-1.02-.004-1.528zm-10.431.576c-.543.016-1.09-.027-1.63.028-.002.144-.002.288.002.432.682.005 1.364.001 2.048.002.001-.148.002-.296 0-.444-.14-.013-.28-.02-.42-.018zm12.839-1.967l-.77.005c-.068.067-.136.132-.205.197 0 .19-.001.379.002.567.15.001.3 0 .451-.002l.003-.344c.358.003.716-.004 1.073.005v1.85l.437.001c-.008-.134.03-.266.023-.4l.002-.492c-.003-.342 0-.684 0-1.025.028-.16-.118-.28-.247-.355-.512-.012-1.026-.007-1.538-.002l.769-.005zm-6.939 1.681h-.228v.442c.152.002.304.002.456 0a16.17 16.17 0 000-.44 31.452 31.452 0 00-.456-.001h.228zm-2.01-.87l-.238.004c-.003.36-.003.722 0 1.083.158.004.316.004.475.002V16.23a13.135 13.135 0 00-.475.002l.237-.003zm4.855.504l-.722.003c-.005.145-.005.29-.003.437.408.043.819.01 1.229.02.081-.007.19.027.236-.06a1.607 1.607 0 00-.018-.399c-.482 0-.963-.004-1.444.002l.722-.003zm-1.764-.016h-.465c-.002.147-.002.294 0 .441h.465a11.24 11.24 0 000-.441zm-9.021-1.277h-.476c-.002.468 0 .937-.002 1.405h.478v-1.405zm1.72-.556l-.44.001c-.186.595-.366 1.19-.547 1.786l.455.002c.122-.459.281-.907.393-1.368l.251-.017c.156.458.272.926.423 1.385l.444-.001c-.168-.598-.36-1.19-.538-1.786-.294-.004-.587-.002-.881 0l.44-.002zm5.69-.132h-.082c-.602.002-1.204.001-1.806.002-.002.14-.002.282 0 .424.587.015 1.176-.026 1.76.023v.978l-.375.005.001.426c.2.002.398.002.597.002l.232-.233V15.06c-.026-.176-.218-.335-.41-.307l.082-.001zm-9.38 1.08a8.942 8.942 0 00-.004.428c.157.003.314.002.472 0 .002-.139.002-.277 0-.416a6.192 6.192 0 00-.468-.012zm10.9-1.789c-.086.104-.251.182-.23.333-.002.4-.002.801 0 1.202-.02.15.142.228.227.33.661 0 1.323.003 1.985-.001.004-.142.004-.284.003-.427-.588-.005-1.176 0-1.763-.003v-1.004l.38-.004a8.912 8.912 0 00-.003-.423c-.2-.004-.4-.002-.6-.003zm-4.788.71h-1.15a5.26 5.26 0 000 .448h1.15c.004-.149.004-.298 0-.448zm9.361-.515l-1.027.004c-.002.146-.002.293 0 .439.685.008 1.369.002 2.053.002.002-.147.002-.296 0-.444-.684 0-1.368-.005-2.053.003l1.027-.004zm-2.331 0l-.244.004c-.002.146-.002.291 0 .437.163.005.325.005.487 0 .002-.146.003-.29 0-.436a7.079 7.079 0 00-.487 0l.244-.005zm-12.648-.912l-1.18.004c-.003.147-.003.295 0 .442.493.006.987 0 1.48.003-.188.123-.386.235-.58.35.13.086.245.205.398.257.361-.2.713-.417 1.064-.632l-.002-.42a165.8 165.8 0 00-2.36 0l1.18-.004zm3.26-.357c-.377.238-.77.457-1.139.709.365.243.75.46 1.12.696.257-.001.514.002.77-.003-.38-.228-.757-.464-1.14-.69.373-.245.767-.46 1.139-.709-.25-.003-.5 0-.75-.003zm3.31.788h-1.02v.44c.678-.001 1.356 0 2.035-.002a1.7 1.7 0 00.006-.436c-.68-.005-1.36 0-2.042-.002h1.021zm1.71 0l-.245.002v.432c.164.003.327.003.49-.001l.001-.428a9.332 9.332 0 00-.49-.003l.245-.002zm1.136-1.298h-.228c-.002.47 0 .938 0 1.407.152 0 .304 0 .457-.002 0-.468.002-.936-.001-1.404a27.677 27.677 0 00-.456 0l.228-.001zm5.799.808l-.236.002c-.003.147-.003.294 0 .44.157.004.314.005.471.001a7.65 7.65 0 00.001-.441 11.638 11.638 0 00-.472 0l.236-.002zm-1.583-1.724c-.295-.044-.593-.001-.889.001-.18.593-.356 1.186-.544 1.776h.458c.128-.459.278-.913.402-1.374l.25-.002c.149.457.272.92.417 1.377h.456c-.192-.59-.357-1.189-.55-1.778zm-2.61 1.044l-.23.002c-.003.147-.003.294-.002.44h.461c.002-.146.002-.292.001-.439a11.821 11.821 0 00-.46-.001l.23-.002zm5.599-.496c-.175 0-.351 0-.526.004.19.3.37.608.56.911.16 0 .32 0 .48-.006-.13-.322-.34-.607-.514-.909zm-8.652-1.333l-.227.002c-.007.548-.001 1.096-.003 1.644-.359-.008-.718.019-1.075-.019a6.34 6.34 0 00-.002-.33h-.434c0 .192-.019.387.008.577.061.066.131.125.2.186.518-.002 1.037.003 1.555-.003l.208-.189c-.005-.622.004-1.245-.004-1.867a15.881 15.881 0 00-.453.002l.226-.003zm-3.574 1.03h-.229c-.01.342-.005.685-.003 1.026.154.002.308.001.463 0 0-.342.002-.684-.002-1.025a25.81 25.81 0 00-.458-.001h.229zm10.818-.601l-.235.002c-.005.47-.005.94 0 1.41.157.002.314.002.47 0 .006-.47.006-.94.001-1.41a10.565 10.565 0 00-.47 0l.234-.002zm-14.107.579l-1.024.003c-.003.147-.003.294 0 .441.682.004 1.365.005 2.048 0a8.722 8.722 0 000-.44c-.683-.006-1.366-.005-2.048 0l1.024-.004zm1.811.003h-.466c-.002.148-.002.295 0 .442.155.002.31.002.466 0a9.608 9.608 0 000-.442zm3.378-1.63c-.254.354-.498.715-.75 1.071-.252-.352-.494-.71-.744-1.064 0 .239-.02.479.007.717.232.361.49.708.736 1.063.248-.36.516-.711.746-1.082.022-.234.005-.471.005-.706zm3.083-1.064l-.227.002c-.006.829-.003 1.657-.001 2.485.158.003.316.003.473 0 .006-.555-.002-1.11.004-1.664.348.493.671 1 1.023 1.492l.177.029c.004-.182.003-.363.003-.544-.414-.596-.813-1.2-1.225-1.798a12.878 12.878 0 00-.454 0l.227-.002zm-5.581.466l-.339.012a15.106 15.106 0 00-.38 0c-.002.147-.002.293 0 .439.171.001.341 0 .512.008-.336.185-.662.385-.995.575.123.094.237.206.387.26.508-.27.99-.583 1.491-.865.002-.137.002-.276.001-.413a8.704 8.704 0 00-1.016-.004l.339-.012zm9.03.662l-1.123.002v.428h2.245v-.427c-.748-.004-1.497-.004-2.245 0l1.123-.003zm-5.507-.489l-.234.003a9.446 9.446 0 00.001.44c.156.003.312.003.467-.001a8.78 8.78 0 000-.439 9.104 9.104 0 00-.468 0l.234-.003zm3.95-.303l-.241.003v.428c.16.003.322.003.483 0v-.427a10.43 10.43 0 00-.483-.001l.241-.003zM13.99 7.627l-.244.005c.012.642-.03 1.287.022 1.927.155.001.31.001.465-.002.007-.642.004-1.285.002-1.928a8.276 8.276 0 00-.489.003l.244-.005zm1.79.911c-.174 0-.349 0-.523.003.18.306.364.61.555.912.16 0 .32 0 .481-.008-.136-.319-.345-.603-.513-.907zm2.75-.22l-.649.004c-.002.147-.002.296 0 .443.433.007.866.005 1.298.001.002-.148.002-.296 0-.445a70.072 70.072 0 00-1.298.001l.649-.003zm-2.56-1.455l-.721.001c-.142-.018-.223.115-.304.2-.029.185-.007.374-.008.56h.448l.003-.35h1.06c.03.346-.002.694-.002 1.04l.035.131c.142.01.286.003.43.002-.003-.465-.003-.93 0-1.395-.072-.062-.136-.135-.22-.183-.48-.012-.962-.002-1.443-.005l.722-.001z" fill="#fff"/></g><defs><clipPath id="clip0_262:1083"><rect width="32" height="32" rx="16" fill="#fff"/></clipPath></defs></svg></g></svg>