<svg width="40" height="40" viewBox="0 0 40 40" fill="none" xmlns="http://www.w3.org/2000/svg"><rect fill="#1D1D3C" width="40" height="40" rx="12"/><g transform="translate(4 4)"><circle cx="16" cy="16" r="14" fill="#fff"/><svg width="32" height="32" viewBox="0 0 32 32" xmlns="http://www.w3.org/2000/svg"><path d="M16 32c8.837 0 16-7.163 16-16S24.837 0 16 0 0 7.163 0 16s7.163 16 16 16z" fill="#1D1D3C"/><path d="M11 9h10v2.5h-5v6h5V20H11V9zM21 22.5v.5H11v-.5h10z" fill="#fff"/><path fill-rule="evenodd" clip-rule="evenodd" d="M16 30c7.732 0 14-6.268 14-14S23.732 2 16 2 2 8.268 2 16s6.268 14 14 14zm0-.991c7.185 0 13.009-5.824 13.009-13.009 0-7.185-5.824-13.009-13.009-13.009C8.815 2.991 2.991 8.815 2.991 16c0 7.185 5.824 13.009 13.009 13.009z" fill="#fff"/></svg></g></svg>