<svg width="40" height="40" viewBox="0 0 40 40" fill="none" xmlns="http://www.w3.org/2000/svg"><rect fill="#FF8E00" width="40" height="40" rx="12"/><g transform="translate(4 4)"><circle cx="16" cy="16" r="14" fill="#fff"/><svg width="32" height="32" viewBox="0 0 32 32" xmlns="http://www.w3.org/2000/svg"><g clip-path="url(#clip0_308_5585)"><path d="M-4 8C-4 1.373 1.373-4 8-4h16c6.627 0 12 5.373 12 12v16c0 6.627-5.373 12-12 12H8C1.373 36-4 30.627-4 24V8z" fill="#FF8E00"/><path d="M26.922 16.764h0l-.002.011-.042.294-.001.01-.002.012c-.539 5.434-5.044 9.409-10.648 9.409-3.953 0-7.409-2.127-9.286-5.3a7.24 7.24 0 004.773 1.787c1.862 0 3.56-.7 4.847-1.85l-.334-.373.334.372a7.252 7.252 0 002.422-5.418c0-1.944-.763-3.71-2.006-5.015a6.27 6.27 0 019.945 6.06z" fill="#fff" stroke="#FF8E00"/><path d="M15.949 10.864l.294.329-.294-.33a7.252 7.252 0 00-2.423 5.419c0 1.944.764 3.71 2.007 5.015A6.27 6.27 0 015.5 16.282v-.505l-.001-.159v-.038l.036-.45c.542-5.44 5.152-9.63 10.746-9.63 3.953 0 7.41 2.127 9.286 5.3a7.24 7.24 0 00-4.773-1.787c-1.861 0-3.56.7-4.846 1.85z" fill="#fff" stroke="#FF8E00"/></g><defs><clipPath id="clip0_308_5585"><rect width="32" height="32" rx="16" fill="#fff"/></clipPath></defs></svg></g></svg>