<svg width="40" height="40" viewBox="0 0 40 40" fill="none" xmlns="http://www.w3.org/2000/svg"><rect fill="#00DACC" width="40" height="40" rx="12"/><g transform="translate(4 4)"><circle cx="16" cy="16" r="14" fill="#fff"/><svg width="32" height="32" viewBox="0 0 32 32" xmlns="http://www.w3.org/2000/svg"><circle cx="16" cy="16" r="16" fill="#00DACC"/><path d="M28.328 16.064c-.139-6.86-5.86-12.295-12.741-12.056-6.717.23-12.031 5.855-11.884 12.576.108 4.968 3.14 9.181 7.419 11.04.606-.771 1.113-2.157 1.364-2.932.251-.633.52-1.248.797-1.845 1.251.437 2.927.021 3.845-.975l.035-.039h-.004c-1.113-.485-2.646-.234-3.655.55a33.16 33.16 0 011.091-2.066c1.23.494 2.923.156 3.885-.797l.039-.038h-.005c-1.074-.529-2.585-.364-3.629.342.381-.633.775-1.243 1.191-1.824 1.273.395 2.95-.09 3.829-1.139l.034-.043h-.004c-1.04-.398-2.4-.165-3.37.511.035-.047.07-.09.104-.139.247-.324.503-.636.758-.944 1.503-.428 2.846-1.957 3.058-3.542l.009-.065h-.005c-1.555.312-2.997 1.84-3.283 3.46-.246.295-.489.593-.727.905.39-1.056.32-2.334-.247-3.218l-.004-.004-.035.043c-.857 1.083-.992 2.846-.33 4.015-.389.55-.766 1.126-1.13 1.724.23-1.195-.155-2.586-.995-3.37l-.005-.004-.022.048c-.554 1.247-.255 2.97.659 3.94-.36.629-.706 1.278-1.035 1.95.199-1.243-.247-2.686-1.14-3.465l-.004-.004-.021.052c-.507 1.312-.117 3.083.866 4.032-.212.459-.42.93-.62 1.407a.425.425 0 00-.181-.108 4.266 4.266 0 01-1-.442 3.87 3.87 0 00-.82-.372c-1.108-.364-.948-.901-1.528-1.97-.039-.07-.498-.55-.593-.637-.026-.022-.316-.191-.468-.507a2.62 2.62 0 01-.243-.814c-.039-.351-.181-.58-.524-.698-1.632-.567-.905-2.685-.844-2.97.048-.243-.16-.767-.238-1.053a1.693 1.693 0 01-.026-.13 1.44 1.44 0 01.342-1.247c.195-.2.875-.515 1.018-.702.138-.182.25-.39.394-.567.19-.238.775-.702 1.559-1.122.476-.255.558-.918.74-1.126.312-.35.78-.35 1.13-.662.178-.16.434-.239.594-.407.81-.832 1.897-1.165 2.97-1.369.724-.134 1.53.074 2.288.204.112.017.216.047.32.073 1.698.056 3.742.412 4.478 1.13.46.45.684.94.797 1.278.121.377.29.736.498 1.074l.455.74c.286.468.38 1.031.26 1.564-.07.303-.109.624-.018.801.143.277.576.728.84.988.126.125.265.234.416.329.351.22 1.014.645 1.014.68 0 .047.056.26-.238.515-.295.256-.845.659-.845.659s.03.186.108.333c.078.147.269.368.212.567-.056.2-.463.36-.35.58.117.221.402.29.32.49-.082.2-.485.546-.446.693.039.147.368 1.52-.385 1.763-.568.182-2.127.281-2.863.32a.915.915 0 00-.754.472 2.617 2.617 0 00-.281.88c-.143.974-1.105 3.204-1.105 3.204s-.03.056-.073.152c-.082.203-.204.52-.186.645.013.082.125.247.29.442a.5.5 0 00.541.151c4.946-1.684 8.45-6.414 8.337-11.91z" fill="#fff"/></svg></g></svg>