<svg width="40" height="40" viewBox="0 0 40 40" fill="none" xmlns="http://www.w3.org/2000/svg"><rect fill="#EC69E6" width="40" height="40" rx="12"/><g transform="translate(4 4)"><circle cx="16" cy="16" r="14" fill="#fff"/><svg width="32" height="32" viewBox="0 0 32 32" xmlns="http://www.w3.org/2000/svg"><circle cx="16" cy="16" r="16" fill="#EC69E6"/><path d="M24.648 23.587a11.462 11.462 0 002.852-7.585c0-.78-.078-1.556-.233-2.32-.007-.048-.077-.328-.057-.259C26.044 8.313 21.466 4.5 16.001 4.5 9.65 4.5 4.5 9.649 4.5 16.002a11.584 11.584 0 00.18 2.043c.071.34.067.321-.003-.009.962 5.38 5.664 9.464 11.32 9.464 1.99.003 3.945-.513 5.673-1.496l.635.784a1.91 1.91 0 002.031.627 1.916 1.916 0 00.944-3.041l-.632-.787zM22.18 20.54l-.813-1.008v-.004a1.91 1.91 0 00-2.034-.622 1.917 1.917 0 00-.943 3.043l.826 1.02a7.68 7.68 0 01-9.339-2.344A7.634 7.634 0 018.48 17.49a7.633 7.633 0 011.054-5.76 7.668 7.668 0 014.829-3.328 7.684 7.684 0 015.773 1.052 7.65 7.65 0 013.337 4.816v-.01c.01.06.02.12.036.178a7.667 7.667 0 01-1.325 6.1l-.003.003zm1.27-6.439v.04c.002-.013 0-.026 0-.04z" fill="#fff"/></svg></g></svg>