<svg width="40" height="40" viewBox="0 0 40 40" fill="none" xmlns="http://www.w3.org/2000/svg"><rect fill="#3AB03E" width="40" height="40" rx="12"/><g transform="translate(4 4)"><circle cx="16" cy="16" r="14" fill="#fff"/><svg width="32" height="32" viewBox="0 0 32 32" xmlns="http://www.w3.org/2000/svg"><g clip-path="url(#clip0_308_5628)"><path d="M-4 8C-4 1.373 1.373-4 8-4h16c6.627 0 12 5.373 12 12v16c0 6.627-5.373 12-12 12H8C1.373 36-4 30.627-4 24V8z" fill="#3AB03E"/><path fill-rule="evenodd" clip-rule="evenodd" d="M18.13 15.917a2.342 2.342 0 01-.969.862v2.893H15.08v-2.894a2.34 2.34 0 01-1.332-2.106c0-1.294 1.063-2.343 2.373-2.343 1.308 0 2.37 1.049 2.37 2.343-.001.44-.126.872-.361 1.245zM8.53 16c0 4.136 3.404 7.5 7.59 7.5h-.001c3.415 0 6.31-2.24 7.26-5.312h2.617C24.987 22.658 20.949 26 16.12 26 10.531 26 6 21.523 6 16S10.531 6 16.12 6c4.829 0 8.867 3.342 9.877 7.812h-2.616c-.95-3.072-3.845-5.312-7.26-5.312-4.186 0-7.59 3.364-7.59 7.5z" fill="#fff"/></g><defs><clipPath id="clip0_308_5628"><rect width="32" height="32" rx="16" fill="#fff"/></clipPath></defs></svg></g></svg>