<svg width="40" height="40" viewBox="0 0 40 40" fill="none" xmlns="http://www.w3.org/2000/svg"><rect fill="#FF8802" width="40" height="40" rx="12"/><g transform="translate(4 4)"><circle cx="16" cy="16" r="14" fill="#fff"/><svg width="32" height="32" viewBox="0 0 32 32" xmlns="http://www.w3.org/2000/svg"><circle cx="16" cy="16" r="16" fill="#FF8802"/><path fill-rule="evenodd" clip-rule="evenodd" d="M26.206 18.964c.425.48.657.998.657 1.539 0 2.484-4.894 4.497-10.931 4.497C9.894 25 5 22.987 5 20.503c0-.54.232-1.059.658-1.54 1.527 1.726 5.55 2.959 10.274 2.959 1.897 0 3.682-.2 5.238-.55v1.123a.769.769 0 101.536 0v-1.542c1.575-.513 2.8-1.199 3.5-1.99zM5.689 14.409c1.448 1.706 5.315 2.943 9.906 3.01v.906c0 .526.346.952.773.952.427 0 .773-.426.773-.952v-.927a23.733 23.733 0 003.518-.408c.096 0 .608.035.621.757v2.027c-1.553.35-3.335.55-5.23.55-5.377 0-9.843-1.605-10.744-3.716a1.99 1.99 0 01-.17-.786c0-.493.196-.968.553-1.413zm20.693.015c.399.466.618.966.618 1.488 0 .268-.06.53-.17.786-.479 1.11-1.948 2.078-4.023 2.749v-2.213l.002-.002-.001-.006V16.99c.019-.206.1-.487.391-.599.38-.134.74-.278 1.066-.442 1.367-.687 1.896-1.252 2.117-1.525zM15.932 7c6.037 0 10.931 2.013 10.931 4.497 0 .268-.06.53-.169.785-.834 1.95-4.718 3.465-9.553 3.684 0-.927.019-1.915.362-2.54.403-.73 1.892-1.101 2.244-1.297.873-.343 1.413-.816 1.413-1.339 0-1.047-2.17-1.897-4.847-1.897-2.677 0-4.847.85-4.847 1.897 0 .278.154.54.427.778.042.04.094.082.158.126.16.115.35.223.565.322.632.35 1.973.853 2.325 1.212.544.555.595 1.783.595 2.686v.076c-5.208-.076-9.486-1.65-10.367-3.708A1.985 1.985 0 015 11.497C5 9.013 9.894 7 15.932 7z" fill="#fff"/></svg></g></svg>