<svg width="40" height="40" viewBox="0 0 40 40" fill="none" xmlns="http://www.w3.org/2000/svg"><rect fill="#024AD7" width="40" height="40" rx="12"/><g transform="translate(4 4)"><circle cx="16" cy="16" r="14" fill="#fff"/><svg width="32" height="32" viewBox="0 0 32 32" xmlns="http://www.w3.org/2000/svg"><circle cx="16" cy="16" r="16" fill="#024AD7"/><path d="M25.685 12.372a2.88 2.88 0 00.221-.738c.095-.552.163-.95-.024-1.326-.06-.122-.1-.157-.303-.322l-.007-.005a12.392 12.392 0 01-.641-.553c-.576-.528-.864-.793-1.035-1.133-.243-.482-1.184-1-1.642-1.155-1.012-.343-1.97-.236-3.08-.112l-.142.016a28.41 28.41 0 01-.39.042c-.55.055-1.104.372-1.55.628l-.006.003c-.17.098-.327.188-.468.254.758.001 1.552.11 2.167.483 1.03.624 1.24 1.903 1.308 3.072.02.335-.004.726-.029 1.14-.055.926-.117 1.976.37 2.112.419.118 1.629.643 3.037 1.354a.448.448 0 00.17.01c.497-.058.869-.546 1.09-.837.276-.36.39-.695.459-.896.084-.245.102-.383.128-.588v-.007l.002-.008c.016-.128.035-.273.073-.47.095-.495.2-.744.292-.963zM20.82 16.626a.13.13 0 00-.066-.196 3.925 3.925 0 00-.567-.154c-.594-.098-1.057.249-1.21.363-.143.108-.148.126-.159.175-.026.119-.067.256-.254.51-.352.477-.59.626-.764.733l-.001.001c-.123.078-.199.125-.295.278-.079.127-.077.25-.062.543.008.147.018.33.012.554v.05c0 .243-.006.44-.014.6-.005.085.075.154.155.12.013-.004.025-.01.038-.015.08-.034.17-.073.372-.104 1.16-.174 1.327-.21 1.49-.319.198-.13.215-.28.233-.608.018-.312.04-.702.313-1.165.077-.131.169-.3.265-.478.2-.364.367-.665.513-.888zM16.17 21.722a.12.12 0 01-.098.05c-.121.005-.206-.025-.263-.092-.12-.144-.103-.433-.075-.602l.49-.129c.038.257.056.63-.055.773zM16.192 20.208c0-.084.009-.163.017-.234.005-.038.01-.086.012-.118a1.072 1.072 0 00-.318.036c-.05.012-.098.022-.144.028-.023.045-.022.193-.021.287v.124l-.002.065v.012l-.001.01-.001.025v.006c-.002.05-.005.119-.003.165.172.003.303.003.456-.052.01-.051.009-.158.008-.237V20.3l-.002-.068v-.014-.01zM15.302 21.573c-.024.248-.102.556-.337.602-.106.022-.158-.01-.19-.04-.16-.146-.185-.586-.162-.901.106.002.245-.022.41-.053.1-.02.2-.042.28-.06.008.117.015.283-.001.452zM14.659 20.866l.531-.184a9.783 9.783 0 00-.012-.708l-.336.018-.011-.001h-.01c-.02 0-.027.006-.03.009-.01.009-.048.05-.057.184-.012.19-.049.478-.075.682zM14.331 20.518a3.24 3.24 0 00-.088.461l-.666-.02c.038-.204.09-.411.147-.577.058-.164.12-.287.178-.322a.294.294 0 01.304.028c.146.123.187.264.125.43zM13.902 22.646c.071-.008.129-.043.18-.113.205-.275.199-.925.178-1.177-.142.008-.44.061-.716.123v.006c-.008.303-.024.922.184 1.111a.207.207 0 00.174.05zM13.213 20.942l-.013.033a5.24 5.24 0 00-.075.205c-.078.024-.314.003-.556-.05l.166-1.036c.273-.072.59-.095.667-.014.1.106-.102.636-.19.862zM12.318 22.92c.27.003.463-.071.593-.228.164-.202.196-.515.186-.767a2.155 2.155 0 00-.02-.22l-.903-.053c-.147.353-.294.907-.144 1.142.034.052.1.123.288.126zM10.614 14.295a.185.185 0 01.004-.004l-.018-.002-.014-.001a1.15 1.15 0 00-.158-.012c-.12 0-.203.023-.232.066-.08.118-.103.274-.137.51l-.002.012c-.022.154-.05.344-.102.565a.847.847 0 00-.018.104c-.02.156-.051.292-.303.867a.601.601 0 00-.04.462v.001l.016.078c.021.056.17.161.266.207-.07-.477.086-.832.206-1.103a2.3 2.3 0 00.091-.226.997.997 0 00.033-.285v-.004c.003-.203.007-.455.21-.9.074-.165.137-.25.191-.326l.003-.003a.068.068 0 01.004-.006zM12.131 9.695c.058-.145.112-.28.158-.388a.72.72 0 00-.275.107c-.176.12-.229.262-.34.6v.006a5.848 5.848 0 01-.585 1.306l-.13.214c-.201.326-.27.444-.246.553.032.145.309.26.478.278a1.707 1.707 0 01.051-.9c.054-.152.125-.262.215-.399l.003-.005.007-.01c.078-.12.175-.27.3-.503.074-.139.228-.521.364-.859z" fill="#fff"/><path fill-rule="evenodd" clip-rule="evenodd" d="M20.37 15.172c-.813-.228-.743-1.402-.675-2.536.023-.402.046-.781.028-1.092-.063-1.062-.243-2.219-1.108-2.742-.93-.562-2.451-.434-3.39-.316h-.002-.001c-.344.104-.665.17-.915.158-.552-.029-.982-.258-1.36-.46l-.004-.001c-.296-.159-.554-.296-.797-.296h-.04c-.727.047-1.062.223-1.366.49-.076.068-.17.261-.474 1.13a3.726 3.726 0 00-.21.905l-.001.007v.003a3.177 3.177 0 01-.167.757c-.077.218-.135.408-.19.59l-.006.018c-.15.499-.27.892-.627 1.359-.038.05-.084.122-.138.205l-.015.024-.009.013c-.08.124-.177.276-.305.451-.093.128-.308.607-.296.753.017.228.092.371.177.536l.004.008.002.003c.086.165.184.352.202.61l.003.042c.032.41-.027.617-.819 1.316a8.393 8.393 0 00-1.108 1.195c-.021.027.007.069.042.066a.578.578 0 01.07-.003h.045l.045.005a.85.85 0 01.512.24c.024.023.06.03.091.017.13-.053.27-.044.406-.031.161.014.324.06.434.16.043.037.1.057.156.046a.705.705 0 01.38.022.64.64 0 01.231.147c.06.06.162.072.236.03a.56.56 0 01.096-.042c.171-.058.361-.025.528.034l.037.013c.07.025.143.05.206.092a.69.69 0 01.255.322c.041.099.177.133.265.07.105-.074.192-.084.28-.046a.246.246 0 01.086.062c.063.071.163.142.257.12.259-.06.573-.02.804.102a.57.57 0 01.23.214l.008-.045a.054.054 0 01.038-.044l.056-.017c.131-.041.803-.233 1.064.039.011.011.03.012.042 0a.368.368 0 01.082-.07.597.597 0 01.656.056c.04.033.103.021.132-.02a.345.345 0 01.312-.147l.369-.02a5.347 5.347 0 00.493-.047c.033-.005.071-.013.111-.021l.02-.004c.18-.039.383-.082.55-.006.16.073.14.253.12.412v.006c-.008.063-.016.128-.015.19l.002.09v.011c.002.133.005.256-.022.35v.001l.017.076c.017.074.097.115.163.075.124-.076.253-.172.294-.229a.072.072 0 00.009-.017.633.633 0 00.026-.11c.023-.136.049-.41.051-.97v-.06a6.299 6.299 0 00-.011-.521v-.002c-.015-.302-.027-.54.125-.782.147-.235.29-.325.428-.41l.002-.002c.16-.1.342-.213.647-.627.15-.204.169-.286.183-.351.034-.154.085-.247.316-.42h.001c.19-.142.762-.57 1.534-.44.253.042.664.175 1.07.333l.044.016.001.001a.213.213 0 00.018.009c.35.138.692.292.918.417.064.036.146.015.193-.042a.817.817 0 01.226-.182l.006-.003a.576.576 0 00.076-.052c.076-.064.075-.198-.013-.243a14.033 14.033 0 00-2.428-.948zm-7.743.247c-.252 1.087-1.956 2.281-2.73 2.281h-.015a.368.368 0 01-.088-.014l-.01-.003-.015-.005a1.313 1.313 0 01-.483-.293.68.68 0 01-.206-.34l-.014-.065a1.114 1.114 0 01.07-.794c.02-.042.037-.081.053-.118l.01-.023c.005-.015.012-.029.018-.043a8.748 8.748 0 00.123-.306c.046-.13.053-.179.059-.229v-.001l.003-.018c.005-.036.011-.08.025-.14.049-.204.074-.376.096-.53.04-.277.074-.516.225-.735a.61.61 0 01.15-.156l.004-.003a.736.736 0 01.119-.066v-.001l.043-.017a.89.89 0 01.094-.029c.139-.033.303-.038.49-.015.207.016.397.055.566.102a3.61 3.61 0 01.465.163l.068.028h.001l.013.006.07.031.02.01.025.01c.119.055.221.113.308.175a1.489 1.489 0 01.188.16c.327.341.311.735.255.978zm.79-4.12l-.034.197c-.076.444-.252 1.053-.899 1.21-.622.15-.77.183-1.213.202l-.03.001c-.324 0-.947-.201-1.057-.702-.07-.322.072-.555.308-.94l.003-.004.013-.022c.036-.057.074-.12.114-.188.314-.52.437-.899.536-1.201V9.85c.097-.296.178-.541.385-.744a1.147 1.147 0 01.477-.282c.144-.046.3-.069.455-.069.302 0 .603.086.818.257.097.076.234.23.314.681.042.233-.028.66-.19 1.605zm4.615 1.264l-.005.009c-.22.372-.34.578-.532.733-.381.31-.827.388-1.193.388-.264 0-.487-.04-.62-.064h-.001c-.38-.069-1.083-.196-1.317-.745a.586.586 0 01-.047-.266c0-.086 0-.232-.04-.578l-.003-.023a1.656 1.656 0 01.006-.562l.005-.027c.133-.668.17-.77.199-.828a.273.273 0 01.365-.115c.129.066.182.22.122.35-.014.038-.052.18-.154.697l-.006.027c-.029.146-.016.256.001.396l.002.024c.045.376.045.546.045.639a1.168 1.168 0 00.001.05l.002.006v.002c.04.092.124.165.228.222.09.05.185-.037.166-.136-.112-.58-.1-1.245.122-1.66.075-.14.212-.37.343-.586l.001-.001.002-.002.009-.015a8.293 8.293 0 00.045-.075l.018-.029.155-.25.018-.029a.289.289 0 01.015-.024l.003-.006.012-.019.002-.003.003-.004.002-.004a.597.597 0 00.004-.006l.006-.01.004-.006a.43.43 0 01.012-.019l.015-.024v-.001l.002-.002v-.001l.001-.001.001-.002a6.62 6.62 0 01.096-.134c.07-.097-.012-.22-.122-.171-.19.084-.317.18-.345.202a.272.272 0 01-.38-.043.266.266 0 01.044-.376c.14-.109.878-.64 1.762-.39.636.178.97.658 1.096.84h.001l.003.003c.103.15.41.595.4 1.212-.008.475-.209.817-.574 1.437z" fill="#fff"/><path d="M11.953 21.327a5.046 5.046 0 01-.567.902c-.12-.322-.33-1.06-.275-1.654a.817.817 0 01.006-.05c.022-.184.072-.352.16-.487.057-.089.217-.143.4-.143a.88.88 0 01.406.096c.068.035.16.107.17.317.013.283-.123.663-.3 1.019z" fill="#fff"/><path d="M22.252 17.127c.009-.017 0-.034-.015-.046-.074-.059-.411-.225-.81-.393a.143.143 0 00-.172.044c-.171.236-.404.663-.573.973l-.004.006-.02.038a17.77 17.77 0 01-.253.452c-.222.376-.24.697-.256.98-.019.334-.038.68-.419.93-.255.168-.484.207-1.66.384a.896.896 0 00-.267.074c-.079.034-.165.07-.357.108a.194.194 0 00-.13.102c-.09.155-.396.382-.655.493a.178.178 0 00-.109.152c-.01.18-.05.358-.143.48a.422.422 0 01-.346.165h-.016a.58.58 0 01-.47-.2c-.006-.008-.02-.006-.022.004-.073.282-.225.533-.531.594a.61.61 0 01-.123.013.48.48 0 01-.33-.127c-.029-.025-.079-.015-.09.021a1.065 1.065 0 01-.15.328.554.554 0 01-.461.243.5.5 0 01-.345-.13c-.084-.077-.28-.073-.346.019a.96.96 0 01-.034.044c-.184.225-.455.34-.808.34h-.024c-.306-.006-.461-.148-.537-.266a.638.638 0 01-.075-.171c-.034-.12-.231-.162-.358-.162-.008 0-.016 0-.023-.002h-.01c-.087-.015-.12-.086-.148-.144v-.002c-.005-.011-.023-.007-.022.005.013.098.027.197.043.297.009.056.009.194-.178.283-.13.063-.353.095-.601.095-.454 0-.995-.108-1.218-.334a1.045 1.045 0 01-.143-.13c-.079-.09-.236-.129-.34-.068a.372.372 0 01-.189.06.326.326 0 01-.046-.003c-.216-.03-.36-.232-.476-.51-.026-.062-.095-.094-.162-.087a3.739 3.739 0 01-.382.024.763.763 0 01-.361-.06.475.475 0 01-.219-.273c-.004-.011-.018-.016-.03-.01a.115.115 0 01-.036.01.56.56 0 01-.37-.068c-.018-.01-.04.008-.033.026l.003.006v.002c.654 1.469 1.05 2.355 1.985 2.848.396.21.992.277 2.179.41l.004.001c.867.098 1.524.097 2.611.095 1.047-.001 1.354-.046 1.56-.087.343-.07.523-.142.712-.217l.003-.001.006-.003c.209-.083.426-.17.839-.249.397-.075.86-.092 1.785-.125h.003c.506-.018.774-.019.934-.019.185 0 .188 0 .253-.02.71-.209 1.137-.862 1.551-1.495.33-.505.592-.904.703-1.508.056-.298.043-.483.02-.789v-.001a12.524 12.524 0 01-.024-1.528c.025-.66.071-.918.216-1.2.101-.197.21-.325.305-.437l.003-.003c.079-.092.146-.17.202-.282z" fill="#fff"/><path d="M10.813 20.538a7.713 7.713 0 00-.01 1.639c.02.197.045.402.077.61-.055.03-.222.071-.518.067-.425-.009-.84-.114-.964-.247l-.02-.017c-.103-.083-.17-.137-.18-.284-.003-.049.018-.098.064-.167.025-.04.059-.084.1-.14.072-.095.16-.213.252-.365a7.63 7.63 0 01.527-.798c.076-.102.164-.225.298-.426.099-.149.182-.266.25-.357.113-.153.188-.236.235-.281-.007.07-.022.166-.038.256l-.004.026c-.022.133-.048.293-.07.484zM10.285 19.955a1.52 1.52 0 00-.089-.405l-.014-.031a3.215 3.215 0 00-.007-.015l-.018-.03-.012-.019-.002-.002-.005-.006-.002-.002a.27.27 0 00-.071-.057.51.51 0 00-.034-.016l-.003-.002h-.001-.001l-.004-.002-.002-.001h-.001-.001l-.002-.002h-.002-.001l-.001-.001-.025-.01a1.139 1.139 0 00-.225-.065h-.005l-.03-.002a.35.35 0 00-.036 0h-.023l-.005.001-.003.001h-.001a.281.281 0 01-.01.003l-.014.004-.035.01-.004.001-.002.001-.02.01a.07.07 0 00-.004.004h-.002l-.001.001a.163.163 0 01-.016.01l-.002.001a.601.601 0 01-.027.027.33.33 0 00-.02.024H9.5v.001l-.001.001-.001.001a.169.169 0 01-.006.01l-.1.15c-.078.118-.158.235-.239.352l-.008.012-.214.306a31.708 31.708 0 00-.141.205l-.001.001.014.003.01.002.038.007h.001a9.398 9.398 0 00.41.07c.228.03.459.044.69.036.01 0 .022 0 .032.002.055-.078.12-.172.204-.296.046-.07.09-.135.132-.194a.227.227 0 01-.035-.099zM8.952 21.934c.307-.427.503-.876.523-1.05a85.545 85.545 0 00-.126-.012h-.002c-.638-.003-1.092-.04-1.35-.182-.013.192 0 .498.066.727v.001c.03.102.065.222.103.343.097.3.22.603.343.62.031-.003.187-.09.443-.447zM9.021 19.457v.002l-.005.006-.004.006c-.098.144-.198.287-.298.43l-.032.046-.17.246-.048.064c-.02.027-.042.054-.061.083l-.018-.005a5.786 5.786 0 01-.253-.062 2.303 2.303 0 01-.259-.088.18.18 0 00-.048-.061v-.003l.052-.103.002-.003.025-.05c.049-.096.098-.191.153-.284.098-.166.215-.335.38-.443a.493.493 0 01.232-.094c.01-.001.065 0 .09.001h.011l.002.001h.002v.001h.002l.002.001.004.001.025.008.033.009.004.002.003.001.002.001h.001a.29.29 0 01.016.01l.004.002a.309.309 0 01.039.025c-.026-.02.035.043.035.038a.422.422 0 01.077.212zM7.68 19.617c.123-.228.27-.448.473-.612a.26.26 0 00-.042-.024c-.064-.025-.135-.03-.204-.034h-.022l-.02-.002c-.064-.004-.131-.008-.188.025-.058.033-.102.087-.143.138l-.006.006a4.697 4.697 0 00-.337.465c-.063.097-.127.197-.183.3l.084.041a1.991 1.991 0 00.37.12 25.777 25.777 0 00.07-.138h.001c.048-.095.095-.19.147-.285zM7.831 21.695a.148.148 0 00-.026.028l-.013.003a3.796 3.796 0 01-.44.02c-.052-.002-.1-.01-.122-.044-.03-.044-.042-.116-.053-.18l-.003-.02-.002-.014a3.435 3.435 0 01-.027-1.045c.181.064.367.114.558.145-.04.312.03.77.07.91l.006.021.052.176zM6.812 19.507c.13-.214.276-.421.437-.616a.486.486 0 00-.444-.164c-.044.014-.075.053-.104.09a2.873 2.873 0 00-.381.612l-.016.032c-.014.027-.03.058-.04.087a.075.075 0 01.013.009l.03.023.03.025c.045.033.09.064.136.093a.69.69 0 00.182.08c.034-.072.077-.142.12-.21l.037-.061zM6.013 19.738c.003-.01.016-.011.022-.003.042.058.1.108.161.156l.007.005.076.056a.013.013 0 01.005.013c-.064.265-.109.545-.11.822 0 .015-.024.019-.027.004-.08-.33-.184-.859-.134-1.053zM6.761 21.037c-.01-.238.006-.475.038-.712l-.118-.052a9.107 9.107 0 01-.055-.023c-.057-.024-.091-.04-.131-.055-.046.24-.067.484-.058.73.005.124.02.258.084.368.024.041.06.081.095.103l.008.005c.02.013.025.016.055.023l.007.001.006.001H6.7c.007 0 .015 0 .01.001a.237.237 0 01.09.003c-.002-.001-.002-.002-.002-.003a4.003 4.003 0 01-.037-.39z" fill="#fff"/><path d="M13.2 29.421c-.962 0-1.91-.063-2.708-.125l-.121-.01-.12-.016a17.519 17.519 0 00-.508-.06c-.735-.08-1.74-.19-2.863-.716l-.134-.064-.126-.07c-2.155-1.21-2.948-2.994-3.527-4.297l-.184-.412a9.527 9.527 0 01-.534-1.377l-.02-.064-.018-.062c-.63-2.24-.393-3.81.845-5.604l.067-.097.073-.093.236-.303c.114-.15.23-.302.355-.459.079-.098.142-.207.187-.323l.143-.363c.06-.154.098-.316.112-.481.123-1.437.822-2.485 1.168-3.004l.002-.002.076-.116.081-.13.025-.033c.043-.087.127-.271.202-.463.04-.132.103-.335.164-.518a7.517 7.517 0 01.416-1.786l.02-.055.022-.055c.037-.096.064-.176.1-.287.148-.444.396-1.187 1.058-2.004l.212-.257.213-.192c1.565-1.42 3.316-1.542 3.9-1.582l.041-.003.062-.003a5.14 5.14 0 012.26.408.831.831 0 00.708-.033h.004c.595-.345 1.684-.97 3.074-1.138l.174-.024A19.62 19.62 0 0120.626 3c1.18 0 2.157.14 2.986.427l.054.018.053.02c1.94.733 2.777 1.654 3.468 2.533.186.235.269.344.477.528l.108.096.087.09.067.052c.329.255.94.729 1.484 1.622l.094.156.08.164c.79 1.612.543 3.075.41 3.86l-.007.048a7.142 7.142 0 01-.484 1.661l-.02.046-.009.045c-.01.054-.016.097-.023.152l-.008.062c-.054.482-.16.957-.316 1.416a7.221 7.221 0 01-1.032 2.021 6.545 6.545 0 01-1.498 1.548 1.957 1.957 0 00-.803 1.553 6.653 6.653 0 01-.111 1.128c-.257 1.387-.85 2.326-1.218 2.899l-.527.79c-.943 1.317-2.056 2.159-3.395 2.569l-.071.022c-.114.036-.23.064-.347.084l-.085.015c-.37.065-.744.098-1.12.097l-.198-.001H18.606c-.026 0-.095 0-.22.007l-.056.003-.054.002c-.18.007-.403.015-.602.024a2.686 2.686 0 00-.8.157c-.964.344-2.144.507-3.673.507z" stroke="#fff" stroke-width=".2" stroke-miterlimit="10"/><path d="M13.2 28.077c-.917 0-1.83-.061-2.604-.121l-.08-.006-.081-.012c-.185-.025-.37-.045-.547-.065-.676-.073-1.518-.165-2.437-.596l-.09-.043-.084-.046c-1.765-.99-2.425-2.476-2.956-3.67-.065-.148-.134-.3-.202-.448a8.174 8.174 0 01-.464-1.203l-.013-.042-.012-.042c-.52-1.847-.349-3.02.657-4.476l.045-.065.048-.062c.088-.112.168-.217.245-.318.262-.344.515-.675.892-1.078a.523.523 0 00.14-.324l.029-.434-.012-.143.005-.148c.04-1.192.639-2.089.96-2.57l.098-.15.054-.086.05-.068a5.89 5.89 0 00.336-.75c.04-.135.12-.391.19-.594a.94.94 0 00.04-.22c.054-.503.17-.998.344-1.473l.013-.037.015-.037c.05-.127.084-.231.124-.351.127-.381.318-.955.826-1.583l.142-.17.14-.128c1.097-.995 2.291-1.184 3.097-1.238l.027-.002h.042c.058-.003.116-.004.174-.004.688 0 1.511.33 1.944.53a.863.863 0 00.662.023c.27-.097.531-.213.785-.345.55-.32 1.462-.846 2.595-.978.063-.01.119-.017.165-.023.114-.014.294-.033.517-.057a17.33 17.33 0 011.603-.08c1.028 0 1.861.115 2.548.352l.035.013.034.013c1.62.612 2.266 1.316 2.886 2.106.202.254.344.437.64.701l.072.064.067.068c.06.06.126.114.195.164.278.215.744.576 1.158 1.257l.063.104.054.11c.6 1.223.407 2.364.292 3.045l-.008.046c-.077.471-.21.93-.4 1.368v.003a1.33 1.33 0 00-.107.357 3.687 3.687 0 00-.036.232l-.008.062c-.043.393-.129.78-.256 1.155a5.837 5.837 0 01-.85 1.667c-.547.78-1.18 1.33-1.943 1.68a1.106 1.106 0 00-.645.956 2.178 2.178 0 00-.003.19c.038.588.08 1.254-.05 1.94-.21 1.134-.69 1.897-1.052 2.457 0 0-1.657 2.306-3.165 2.766l-.162.05-.174.032c-.293.052-.591.077-.889.076l-.176-.001h-.138c-.06 0-.156 0-.305.01l-.037.002h-.036c-.577.021-1.122.04-1.274.07a.928.928 0 00-.235.07c-.853.373-1.972.548-3.516.548z" stroke="#fff" stroke-width=".2" stroke-miterlimit="10"/><path d="M13.2 26.734c-.87 0-1.752-.06-2.5-.118l-.04-.003-.04-.006c-.205-.028-.4-.049-.587-.07-.636-.069-1.295-.14-2.012-.477l-.045-.021-.042-.023c-1.377-.773-1.889-1.927-2.385-3.044-.07-.159-.143-.323-.219-.486a6.824 6.824 0 01-.393-1.025l-.007-.02-.006-.022c-.414-1.47-.308-2.222.47-3.348l.023-.034.024-.031.254-.33c.375-.491.698-.916 1.423-1.585l.002-.002a.38.38 0 00.096-.403l-.13-.373a2.7 2.7 0 01-.056-.356v-.004l-.008-.1.003-.075c.026-.81.452-1.447.733-1.87.044-.067.086-.128.119-.18l.027-.043.03-.041c.15-.202.393-.76.52-1.105.034-.107.12-.393.191-.6.051-.156.084-.317.099-.48.042-.405.135-.803.276-1.184l.007-.019.007-.018c.062-.16.106-.29.148-.418.113-.338.24-.722.594-1.159l.072-.086.07-.063c.778-.707 1.632-.85 2.29-.893h.035c.037 0 .074-.003.11-.003.642 0 1.134.263 1.46.437l.076.04.011.006c.09.049.168.091.241.127a.927.927 0 00.654.067 8.399 8.399 0 001.61-.641l.01-.006c.493-.285 1.235-.715 2.104-.81.055-.01.107-.016.157-.022a16.187 16.187 0 011.95-.127c.876 0 1.565.091 2.108.278l.018.007.018.007c1.3.491 1.775 1.005 2.303 1.68.215.273.419.532.804.875l.036.033.033.034c.105.105.217.202.336.29.232.178.549.424.833.892l.032.052.026.055c.41.835.273 1.641.174 2.23l-.008.047c-.06.371-.166.734-.317 1.079-.088.198-.15.407-.186.621a5.083 5.083 0 00-.049.311l-.008.064a4.154 4.154 0 01-.196.895 4.5 4.5 0 01-.667 1.31c-.494.709-1.042 1.146-1.77 1.377-.348.11-.648.338-.848.643l-.058.089-.064.073c-.185.21-.132 1.025-.1 1.512.033.533.069 1.085-.03 1.605-.165.889-.545 1.488-.886 2.016 0 0-1.265 1.825-2.407 2.172l-.083.026-.087.015a3.656 3.656 0 01-.659.057h-.314c-.078 0-.202 0-.39.013h-.037c-.765.028-1.227.045-1.483.094-.171.03-.34.08-.5.15-.683.303-1.638.445-3 .445z" stroke="#fff" stroke-width=".2" stroke-miterlimit="10"/></svg></g></svg>