<svg width="40" height="40" viewBox="0 0 40 40" fill="none" xmlns="http://www.w3.org/2000/svg"><rect fill="#FF8A03" width="40" height="40" rx="12"/><g transform="translate(4 4)"><circle cx="16" cy="16" r="14" fill="#fff"/><svg width="32" height="32" viewBox="0 0 32 32" xmlns="http://www.w3.org/2000/svg"><g clip-path="url(#clip0_411_6324)"><path d="M-4 8C-4 1.373 1.373-4 8-4h16c6.627 0 12 5.373 12 12v16c0 6.627-5.373 12-12 12H8C1.373 36-4 30.627-4 24V8z" fill="#FF8A03"/><path d="M16 27.895v-11.92l10.311-5.94v11.907l-10.31 5.952zm0 0L5.687 21.942V10.036l10.324-5.93 10.302 5.93-5.613 3.232 2.18-1.26-6.904-3.995-6.883 3.974v7.949l3.43 1.979h.004v-7.942h-.004l3.453-1.995 3.476 2.011L16 15.98v11.916z" fill="#fff"/></g><defs><clipPath id="clip0_411_6324"><rect width="32" height="32" rx="16" fill="#fff"/></clipPath></defs></svg></g></svg>