<svg width="40" height="40" viewBox="0 0 40 40" fill="none" xmlns="http://www.w3.org/2000/svg"><rect fill="#000" width="40" height="40" rx="12"/><g transform="translate(4 4)"><circle cx="16" cy="16" r="14" fill="#fff"/><svg width="32" height="32" viewBox="0 0 40 40" xmlns="http://www.w3.org/2000/svg"><circle cx="20" cy="20" r="20" fill="#000"/><path d="M15.248 18.606h2.698c-.481-2.097-2.064-3.856-4.893-3.856C9.596 14.75 8 17.153 8 20.035c0 2.883 1.596 5.22 5.053 5.22 2.857 0 4.442-1.749 4.907-3.857h-2.7c-.355.879-1.088 1.53-2.24 1.53-1.706 0-2.494-1.302-2.494-2.907 0-1.606.788-2.944 2.493-2.944 1.14 0 1.87.653 2.229 1.529z" fill="#fff"/><path fill-rule="evenodd" clip-rule="evenodd" d="M26.248 14.95c2.335 0 4.39 1.313 4.39 3.973 0 2.643-2.038 3.999-4.382 3.999h-3.133c-2.343 0-4.382-1.348-4.382-4 0-2.608 2.047-3.973 4.382-3.973h3.125zm-3.308 2.363c-1.053 0-1.882.56-1.882 1.618 0 1.068.829 1.618 1.882 1.618h3.499c1.02 0 1.89-.567 1.89-1.618 0-1.05-.88-1.618-1.88-1.618H22.94z" fill="#fff"/><path d="M32 23.924a1.33 1.33 0 11-2.66 0 1.33 1.33 0 012.66 0z" fill="#fff"/></svg></g></svg>