<svg width="40" height="40" viewBox="0 0 40 40" fill="none" xmlns="http://www.w3.org/2000/svg"><rect fill="#53D855" width="40" height="40" rx="12"/><g transform="translate(4 4)"><circle cx="16" cy="16" r="14" fill="#fff"/><svg width="32" height="32" viewBox="0 0 32 32" xmlns="http://www.w3.org/2000/svg"><g clip-path="url(#clip0_261:1087)"><circle cx="16" cy="16" r="16" fill="#53D855"/><path d="M16.368 22.205c-.226-2.465.133-5.787 1.586-7.397 1.53.34 4.591-.708 5.704-2.832 1.01-1.926.827-4.752 1.392-5.521-6.655 0-7.76 6.879-9.665 12.03-1.41-3.809-5.832-6.375-9.674-4.81 1.562 1.08 2.536 3.743 4.653 3.981.666.075 1.875 0 2.672-1.505 1.885 1.531 1.61 3.388 1.365 6.054-.099 1.076-.471 2.1-.416 2.953.078 1.508 2.721 1.508 2.8 0 .054-.853-.318-1.877-.417-2.953z" fill="#fff"/></g><defs><clipPath id="clip0_261:1087"><rect width="32" height="32" rx="16" fill="#fff"/></clipPath></defs></svg></g></svg>