<svg width="40" height="40" viewBox="0 0 40 40" fill="none" xmlns="http://www.w3.org/2000/svg"><rect fill="#010304" width="40" height="40" rx="12"/><g transform="translate(4 4)"><circle cx="16" cy="16" r="14" fill="#fff"/><svg width="32" height="32" viewBox="0 0 32 32" xmlns="http://www.w3.org/2000/svg"><g clip-path="url(#clip0_261:1040)"><circle cx="16" cy="16" r="16" fill="#010304"/><mask id="a" style="mask-type:alpha" maskUnits="userSpaceOnUse" x="5" y="5" width="22" height="22"><path fill-rule="evenodd" clip-rule="evenodd" d="M5 5h21.92v22H5V5z" fill="#fff"/></mask><g mask="url(#a)" fill-rule="evenodd" clip-rule="evenodd" fill="#fff"><path d="M7.567 22.005a10.821 10.821 0 01-1.016-4.592c0-5.999 4.863-10.861 10.861-10.861 3.34 0 6.328 1.507 8.32 3.88l1.189-.998A12.385 12.385 0 0017.412 5C10.557 5 5 10.557 5 17.413c0 1.875.416 3.654 1.16 5.247l1.407-.655z"/><path d="M17.412 24.783a7.37 7.37 0 115.645-12.107l1.19-.998a8.922 8.922 0 00-15.755 5.735 8.922 8.922 0 008.92 8.922v-1.552z"/><path d="M20.086 19.657a3.491 3.491 0 110-4.488l1.337-1.122a5.236 5.236 0 10-.25 7.01l-1.087-1.4z"/></g></g><defs><clipPath id="clip0_261:1040"><rect width="32" height="32" rx="16" fill="#fff"/></clipPath></defs></svg></g></svg>