
      <svg width="40" height="40" viewBox="0 0 40 40" fill="none" xmlns="http://www.w3.org/2000/svg">
        <rect fill="#29ABE2" x="0" y="0" width="40" height="40" rx="12"></rect>
        <g transform="translate(4,4)">
          <circle cx="16" cy="16" r="14" fill="#ffffff" />
          <svg width="32" height="32" viewBox="0 0 32 32" fill="none" xmlns="http://www.w3.org/2000/svg">
<path d="M16 32C24.8366 32 32 24.8366 32 16C32 7.16344 24.8366 0 16 0C7.16344 0 0 7.16344 0 16C0 24.8366 7.16344 32 16 32Z" fill="#29ABE2"/>
<path d="M16.0093 2C23.7507 1.99533 30.1454 8.33222 29.9975 16.2817C29.8566 23.8779 23.5982 30.1522 15.698 29.9973C8.10996 29.8486 1.8352 23.588 2.0033 15.6786C2.16401 8.11352 8.34616 1.99611 16.0093 2ZM14.8034 27.9009L14.8517 27.8406C14.8252 27.7912 14.8065 27.7352 14.7707 27.6935C14.4007 27.2604 14.0582 26.7981 13.6477 26.407C13.2235 26.0027 12.7445 25.6524 12.2682 25.308C11.6841 24.8862 11.6441 24.4181 12.1908 23.9647C12.3402 23.841 12.5083 23.7394 12.6566 23.6145C13.0547 23.2794 13.2403 22.9837 12.7819 22.4961C12.5033 22.1999 12.6251 21.8489 13.0157 21.7279C13.1243 21.6944 13.2372 21.6746 13.3621 21.6454C13.2395 21.5722 13.1259 21.5236 13.036 21.4473C12.7461 21.2002 12.8017 20.8453 13.1477 20.6877C13.2064 20.6608 13.2663 20.6359 13.3232 20.6052C13.9224 20.2752 14.2571 19.6331 13.7578 18.9252C13.6547 18.7789 13.573 18.6116 13.5099 18.4435C13.3726 18.0777 13.4496 17.8197 13.7679 17.5959C13.9469 17.4702 14.1403 17.3585 14.34 17.2682C15.2101 16.8744 16.044 16.416 16.825 15.8677C17.0981 15.6758 17.36 15.4556 17.5849 15.21C17.8285 14.9439 17.8643 14.6049 17.6803 14.2885C17.5698 14.099 17.4188 13.9157 17.2452 13.783C16.4802 13.1997 16.5234 12.2934 17.3526 11.8248C17.3581 11.8217 17.3662 11.8194 17.369 11.8147C17.4118 11.7373 17.4904 11.6587 17.4896 11.5812C17.4873 11.3353 17.3102 11.229 17.0736 11.175C17.1923 11.103 17.2974 11.0539 17.3853 10.9835C17.6593 10.7636 17.669 10.5434 17.4215 10.2966C17.302 10.178 17.1709 10.0705 17.0565 9.94758C16.823 9.69736 16.8281 9.4592 17.0946 9.24828C17.2861 9.0969 17.5102 8.98755 17.7141 8.85096C17.9068 8.72215 18.1153 8.60502 18.276 8.44235C18.5414 8.17345 18.5021 7.86525 18.2169 7.61463C17.6573 7.12275 17.0763 6.65149 16.5487 6.12692C15.9778 5.55954 15.3182 5.03264 15.2346 4.09206C11.265 4.45747 8.13758 6.24016 5.94171 9.57322C3.45593 13.3468 3.3855 18.3112 5.78917 22.2034C7.86169 25.5594 10.9172 27.4098 14.8038 27.9002L14.8034 27.9009Z" fill="white"/>
</svg>

        </g>
      </svg>