<svg width="40" height="40" viewBox="0 0 40 40" fill="none" xmlns="http://www.w3.org/2000/svg"><rect fill="#0079FF" width="40" height="40" rx="12"/><g transform="translate(4 4)"><circle cx="16" cy="16" r="14" fill="#fff"/><svg width="32" height="32" viewBox="0 0 32 32" xmlns="http://www.w3.org/2000/svg"><g clip-path="url(#clip0_308_5600)"><path d="M-4 8C-4 1.373 1.373-4 8-4h16c6.627 0 12 5.373 12 12v16c0 6.627-5.373 12-12 12H8C1.373 36-4 30.627-4 24V8z" fill="#0079FF"/><path d="M15.998 18.28a.793.793 0 00-.793.792v1.586c0 .068.009.134.025.198a1.585 1.585 0 101.536 0 .797.797 0 00.025-.198v-1.586a.793.793 0 00-.793-.793z" fill="#fff"/><path fill-rule="evenodd" clip-rule="evenodd" d="M15.998 5a5.351 5.351 0 00-5.351 5.351v4.757h-.991c-.876 0-1.586.71-1.586 1.586v8.72c0 .876.71 1.586 1.586 1.586H22.34c.876 0 1.586-.71 1.586-1.586v-8.72c0-.876-.71-1.586-1.586-1.586h-.99v-4.757A5.351 5.351 0 0015.997 5zm4.162 10.108v-4.757a4.162 4.162 0 00-8.324 0v4.757h8.324zm2.18 1.19H9.656a.396.396 0 00-.397.396v8.72c0 .22.178.397.397.397H22.34a.396.396 0 00.397-.397v-8.72a.396.396 0 00-.397-.397z" fill="#fff"/></g><defs><clipPath id="clip0_308_5600"><rect width="32" height="32" rx="16" fill="#fff"/></clipPath></defs></svg></g></svg>