<svg width="40" height="40" viewBox="0 0 40 40" fill="none" xmlns="http://www.w3.org/2000/svg"><rect fill="#8247E5" width="40" height="40" rx="12"/><g transform="translate(4 4)"><circle cx="16" cy="16" r="14" fill="#fff"/><svg width="32" height="32" viewBox="0 0 32 32" xmlns="http://www.w3.org/2000/svg"><path d="M16 32c8.837 0 16-7.163 16-16S24.837 0 16 0 0 7.163 0 16s7.163 16 16 16z" fill="#8247E5"/><path d="M20.592 12.948a1.138 1.138 0 00-1.127 0l-2.585 1.525-1.757.994-2.585 1.525a1.139 1.139 0 01-1.127 0l-2.054-1.193a1.143 1.143 0 01-.564-.961v-2.354c0-.397.199-.762.564-.96l2.021-1.16a1.139 1.139 0 011.127 0l2.022 1.16c.331.198.563.563.563.96v1.525l1.757-1.027v-1.525c0-.398-.199-.762-.564-.961l-3.745-2.188a1.138 1.138 0 00-1.127 0L7.6 10.496a1.074 1.074 0 00-.563.96v4.409c0 .398.198.762.563.961l3.811 2.188c.332.198.763.198 1.127 0l2.585-1.492 1.757-1.027 2.585-1.492a1.139 1.139 0 011.127 0l2.022 1.16c.331.2.563.564.563.961v2.354c0 .397-.199.762-.563.96l-2.022 1.194a1.138 1.138 0 01-1.127 0l-2.022-1.16a1.143 1.143 0 01-.563-.961v-1.525l-1.757 1.027v1.525c0 .398.2.762.564.961l3.811 2.188c.332.198.763.198 1.127 0l3.812-2.188c.331-.199.563-.563.563-.96V16.13c0-.398-.199-.762-.563-.961l-3.845-2.22z" fill="#fff"/></svg></g></svg>