<svg width="40" height="40" viewBox="0 0 40 40" fill="none" xmlns="http://www.w3.org/2000/svg"><rect fill="#7866D5" width="40" height="40" rx="12"/><g transform="translate(4 4)"><circle cx="16" cy="16" r="14" fill="#fff"/><svg width="32" height="32" viewBox="0 0 32 32" xmlns="http://www.w3.org/2000/svg"><path fill-rule="evenodd" clip-rule="evenodd" d="M0 16C0 7.163 7.163 0 16 0s16 7.163 16 16-7.163 16-16 16S0 24.837 0 16z" fill="#7866D5"/><path fill-rule="evenodd" clip-rule="evenodd" d="M17.604 23.313c-1.402 0-2.804-.012-4.196-.037a14.592 14.592 0 01-2.634-.304c-2.127-.437-3.237-1.571-3.596-3.679a17.382 17.382 0 01-.127-.972 31.36 31.36 0 00-.049-.424L7 17.854l.002-3.652.035-.342a74.5 74.5 0 01.079-.723c.28-2.382 1.41-3.623 3.774-4.144.62-.136 1.245-.193 1.851-.247.196-.018.392-.035.588-.057l.037-.002h8.722l.021.002c.145.018.292.034.44.047.329.033.67.068 1.01.134 1.119.216 1.55.842 1.358 1.97a1.12 1.12 0 01-.975.963c-.229.037-.476.054-.72.048-3.042.01-6.093.018-9.144.024a8.213 8.213 0 00-1.308.116c-1.356.222-1.803.702-1.911 2.06-.01.12-.02.24-.022.324.084.006.208.006.33.006h12.509c.257 0 .508.068.73.198.67.426.613 1.069.572 1.54l-.002.015-.014.176c-.033.552-.382.922-.982 1.037-.21.033-.414.046-.616.042H10.827l.002.028.002.027.002.023c.016.405.067.797.15 1.179.154.61.52.98 1.15 1.155.841.233 1.706.27 2.441.274 2.318.015 4.676.013 6.957.012h1.966c.29 0 .895 0 1.251.556a1.582 1.582 0 01-.843 2.351c-.725.231-1.466.274-2.098.285-1.4.022-2.802.034-4.203.034z" fill="#fff"/></svg></g></svg>