<svg width="40" height="40" viewBox="0 0 40 40" fill="none" xmlns="http://www.w3.org/2000/svg"><rect fill="red" width="40" height="40" rx="12"/><g transform="translate(4 4)"><circle cx="16" cy="16" r="14" fill="#fff"/><svg width="32" height="32" viewBox="0 0 32 32" xmlns="http://www.w3.org/2000/svg"><path d="M16 32c8.837 0 16-7.163 16-16S24.837 0 16 0 0 7.163 0 16s7.163 16 16 16z" fill="red"/><path fill-rule="evenodd" clip-rule="evenodd" d="M16 4c.224 0 .446.006.666.018l.595 1.053a11.118 11.118 0 00-1.718-.062l-.775-.947A12.14 12.14 0 0116 4zm1.243.064l.617 1.093c.551.094 1.089.228 1.609.401l-.359-1.151a11.954 11.954 0 00-1.867-.343zm2.793 1.7c.52.205 1.022.45 1.5.729l-.089-1.188c-.57-.291-1.166-.538-1.784-.735l.372 1.194zm2.006 1.042l-.093-1.23c.512.293 1 .622 1.46.984h-.049v1.265a11.044 11.044 0 00-1.318-1.019zm1.798.109v1.37c.41.416.787.864 1.127 1.342l.113-1.473a12.077 12.077 0 00-1.24-1.24zm1.558 3.365l.122-1.587c.413.538.782 1.113 1.101 1.717l-.58 1.091c-.19-.421-.404-.83-.643-1.221zm1.486.66l-.605 1.136c.2.524.362 1.068.481 1.628l.816-.878a11.912 11.912 0 00-.692-1.887zm-.016 3.352l.846-.909c.13.586.218 1.187.259 1.801L27 16c0-.58-.045-1.15-.132-1.707zm1.13 1.497l-1.016.851c-.033.574-.11 1.137-.228 1.684l1.12-.581a12.1 12.1 0 00.124-1.954zm-1.396 3.155l1.17-.608a11.908 11.908 0 01-.57 1.976l-1.19.25c.237-.519.435-1.06.59-1.619zm.378 1.905l-1.236.26c-.28.535-.604 1.043-.965 1.52l1.304-.12c.34-.526.64-1.08.897-1.66zm-2.62 2.301l1.371-.127c-.337.466-.706.907-1.105 1.32l-1.406-.044c.407-.355.788-.739 1.14-1.149zm-.21 1.658l-1.498-.046a11 11 0 01-1.265.83l1.33.354a12.05 12.05 0 001.433-1.138zm-3.394 1.114l1.41.374c-.571.344-1.174.64-1.803.886l-1.106-.672c.517-.16 1.018-.357 1.499-.588zm-.973 1.47l-1.161-.706c-.524.128-1.062.218-1.612.268l.785.913a11.93 11.93 0 001.988-.476zm-3.373-.4l.814.946a12.158 12.158 0 01-1.76.05l-.674-1.054a11.117 11.117 0 001.62.058zm-1.541.955l-.704-1.1a10.924 10.924 0 01-1.591-.391l.424 1.165a11.96 11.96 0 001.87.326zm-2.883-1.702l.442 1.214a11.913 11.913 0 01-1.802-.727l-.144-1.214c.48.279.982.522 1.504.727zm-1.876.213l-.15-1.263c-.46-.303-.896-.64-1.305-1.006l-.045 1.266c.473.37.974.706 1.5 1.003zm-1.92-2.711l-.047 1.323a12.066 12.066 0 01-1.246-1.25l.179-1.388c.337.467.71.907 1.114 1.315zm-1.71-.442l.19-1.477a10.977 10.977 0 01-.679-1.258l-.533 1.167c.3.55.642 1.075 1.021 1.569zm-.742-3.335l-.56 1.223c-.289-.602-.53-1.232-.716-1.884l.789-.962c.121.558.285 1.1.487 1.623zm-1.425-1.236l.822-1.003A11.08 11.08 0 015 16.03l-.978.703c.041.684.14 1.352.29 2zm.702-3.306L4 16.157a12.252 12.252 0 01.105-1.758l1.131-.683a11.01 11.01 0 00-.222 1.712zm-.81-1.65l1.193-.72c.15-.545.343-1.073.572-1.58l-1.208.306a11.91 11.91 0 00-.557 1.994zm2.04-2.866l-1.26.32c.258-.597.565-1.17.913-1.712H7.11c-.321.44-.611.906-.865 1.392zM6.223 9.04h1.258c.386-.472.81-.91 1.268-1.312l-1.376-.07c-.416.431-.8.893-1.15 1.382zm3.078-1.765L7.84 7.202c.457-.424.946-.813 1.465-1.162l1.31.366c-.46.258-.899.549-1.314.869zm.549-1.581l1.388.387c.485-.233.99-.432 1.511-.593l-1.057-.692c-.643.248-1.258.549-1.842.898zm3.515-.376l-1.105-.724a11.923 11.923 0 011.946-.46l.75.915c-.543.051-1.074.142-1.591.269zM16 25a9 9 0 100-18 9 9 0 000 18zm0 1c5.523 0 10-4.477 10-10S21.523 6 16 6 6 10.477 6 16s4.477 10 10 10zm2.514-8.78l2.06 2.858h.002a1.219 1.219 0 01.252.914 1.226 1.226 0 01-.471.818 1.167 1.167 0 01-.903.216 1.164 1.164 0 01-.777-.52l-3.254-4.52a1.252 1.252 0 01.33-1.766c.186-.12.4-.187.62-.191h.91a.91.91 0 00.668-.25.947.947 0 00.298-.662v-.23a1.044 1.044 0 00-.288-.7.997.997 0 00-.679-.31h-5.78v-1.164c.002-.321.127-.629.35-.856.221-.227.522-.355.835-.357h4.138c.472-.001 1.76-.004 2.746.92.32.31.57.687.737 1.105.166.418.243.867.226 1.318 0 1.492-.594 2.345-1.096 2.797a3.104 3.104 0 01-.924.58zM11.5 20.687v-5.659h2.852l-.016 5.683a1.466 1.466 0 01-.465.913 1.402 1.402 0 01-.94.369 1.366 1.366 0 01-.955-.368 1.43 1.43 0 01-.45-.938H11.5z" fill="#fff"/></svg></g></svg>