<svg width="40" height="40" viewBox="0 0 40 40" fill="none" xmlns="http://www.w3.org/2000/svg"><rect fill="#010304" width="40" height="40" rx="12"/><g transform="translate(4 4)"><circle cx="16" cy="16" r="14" fill="#fff"/><svg width="32" height="32" viewBox="0 0 32 32" xmlns="http://www.w3.org/2000/svg"><g clip-path="url(#clip0_261:1135)"><circle cx="16" cy="16" r="16" fill="#010304"/><path d="M9.182 7H7v2.182h2.182V7zM14.636 7h-2.181v2.182h2.181V7zM20.09 7h-2.18v2.182h2.18V7zM9.182 12.454H7v2.182h2.182v-2.181zM14.636 12.454h-2.181v2.182h2.181v-2.181zM9.182 17.905H7v2.182h2.182v-2.182zM24.454 8.636a.545.545 0 100-1.09.545.545 0 000 1.09zM24.454 14.09a.545.545 0 100-1.09.545.545 0 000 1.09zM24.454 19.541a.545.545 0 100-1.09.545.545 0 000 1.09zM24.454 24.996a.545.545 0 100-1.091.545.545 0 000 1.09zM19 14.09A.546.546 0 1019 13a.546.546 0 000 1.09zM19 19.541a.546.546 0 100-1.09.546.546 0 000 1.09zM19 24.996a.546.546 0 100-1.091.546.546 0 000 1.09zM13.546 19.541a.545.545 0 100-1.09.545.545 0 000 1.09zM13.546 24.996a.545.545 0 100-1.091.545.545 0 000 1.09zM8.09 24.996a.545.545 0 100-1.091.545.545 0 000 1.09z" fill="#fff"/></g><defs><clipPath id="clip0_261:1135"><rect width="32" height="32" rx="16" fill="#fff"/></clipPath></defs></svg></g></svg>