<svg width="40" height="40" viewBox="0 0 40 40" fill="none" xmlns="http://www.w3.org/2000/svg"><rect fill="#3B91F7" width="40" height="40" rx="12"/><g transform="translate(4 4)"><circle cx="16" cy="16" r="14" fill="#fff"/><svg width="32" height="32" viewBox="0 0 40 40" xmlns="http://www.w3.org/2000/svg"><circle cx="20" cy="20" r="20" fill="#3B91F7"/><path fill-rule="evenodd" clip-rule="evenodd" d="M20 9.043C13.949 9.043 9.043 13.95 9.043 20c0 6.051 4.906 10.956 10.957 10.956 6.051 0 10.956-4.905 10.956-10.956 0-6.051-4.905-10.957-10.956-10.957zM8 20c0-6.627 5.373-12 12-12s12 5.373 12 12-5.373 12-12 12S8 26.627 8 20zm5.718-5.582a8.404 8.404 0 00.001 11.164l-.7.7a9.392 9.392 0 010-12.564l.7.7zm12.564 12.563a9.392 9.392 0 01-12.564 0l.7-.7a8.404 8.404 0 0011.163 0l.7.7zm0-13.962l-.7.7a8.404 8.404 0 00-11.165 0l-.7-.7a9.392 9.392 0 0112.565 0zm.699.699a9.392 9.392 0 010 12.564l-.7-.7a8.404 8.404 0 000-11.164l.7-.7zm-6.9 2.663c-.218.46-.424 1.167-.594 1.952l-1.934-.31-.109.811 1.89.304c-.02.12-.04.239-.057.359l-.081.534-1.879-.301-.102.812 1.852.298c-.417 2.259-.747 3.237-1.163 3.744a.523.523 0 01-.287.148c-.156.02-.284-.066-.38-.317a.845.845 0 00-.249-.363.535.535 0 00-.408-.121c-.094-.015-.27.126-.316.301-.062.237.08.488.435.732.694.478 1.362.33 1.957-.25.357-.349.682-.875.763-1.096.209-.441.504-1.56.728-2.605l1.942.311.108-.811-1.897-.305.037-.225.02-.134.081-.535 1.879.302.102-.813-1.852-.297c.28-1.513.481-2.243.7-2.642.063-.114.137-.221.221-.32l.108-.13a.52.52 0 01.287-.146c.156-.02.284.065.38.316a.845.845 0 00.25.363c.131.106.27.136.407.121.094.015.27-.126.316-.302.062-.236-.08-.487-.435-.73-.694-.479-1.362-.331-1.957.25-.357.347-.683.875-.763 1.095z" fill="#fff"/></svg></g></svg>