<svg width="40" height="40" viewBox="0 0 40 40" fill="none" xmlns="http://www.w3.org/2000/svg"><rect fill="#2EB6EA" width="40" height="40" rx="12"/><g transform="translate(4 4)"><circle cx="16" cy="16" r="14" fill="#fff"/><svg width="32" height="32" viewBox="0 0 32 32" xmlns="http://www.w3.org/2000/svg"><path d="M16 32c8.837 0 16-7.163 16-16S24.837 0 16 0 0 7.163 0 16s7.163 16 16 16z" fill="#2EB6EA"/><path d="M11.023 8.002l-.05.322c-.45 4.699.553 6.89 1.996 7.94 1.49 1.083 3.632 1.113 5.92 1.007a7.363 7.363 0 015.136 1.283c.286-.854.44-1.766.44-2.713 0-4.883-4.113-8.841-9.188-8.841a9.44 9.44 0 00-4.254 1.002z" fill="#fff"/><path d="M25.99 25l.01-.537v-.003a6.13 6.13 0 00-.54-2.555 6.168 6.168 0 00-1.556-2.103 6.242 6.242 0 00-4.896-1.496l-.022.002-.022.001c-2.237.104-4.795.131-6.647-1.216-1.842-1.34-2.82-3.89-2.459-8.427C2.682 13.762 6.194 25 14.823 25h11.168z" fill="#fff"/></svg></g></svg>