<svg width="40" height="40" viewBox="0 0 40 40" fill="none" xmlns="http://www.w3.org/2000/svg"><rect fill="#00EB88" width="40" height="40" rx="12"/><g transform="translate(4 4)"><circle cx="16" cy="16" r="14" fill="#fff"/><svg width="32" height="32" viewBox="0 0 32 32" xmlns="http://www.w3.org/2000/svg"><path d="M16 32c8.837 0 16-7.163 16-16S24.837 0 16 0 0 7.163 0 16s7.163 16 16 16z" fill="#00EB88"/><path fill-rule="evenodd" clip-rule="evenodd" d="M13 8h-3v3h3V8zm0 6.5h-3v3h3v-3zm9 0h3v3h-3v-3zM19 11h-3v3h3v-3zm-3 6.75h3v3h-3v-3zM13 21h-3v3h3v-3z" fill="#fff"/></svg></g></svg>