<svg width="40" height="40" viewBox="0 0 40 40" fill="none" xmlns="http://www.w3.org/2000/svg"><rect fill="#F69988" width="40" height="40" rx="12"/><g transform="translate(4 4)"><circle cx="16" cy="16" r="14" fill="#fff"/><svg width="32" height="32" viewBox="0 0 32 32" xmlns="http://www.w3.org/2000/svg"><g clip-path="url(#clip0_411_6330)"><path d="M-4 8C-4 1.373 1.373-4 8-4h16c6.627 0 12 5.373 12 12v16c0 6.627-5.373 12-12 12H8C1.373 36-4 30.627-4 24V8z" fill="#F69988"/><path fill-rule="evenodd" clip-rule="evenodd" d="M21.872 13.315l-5.864-9.237-5.865 9.237 5.864 3.439 5.865-3.44zm-5.864-6.846l-4.07 6.409 4.07 2.386 4.069-2.386-4.07-6.41z" fill="#fff"/><path d="M9.196 14.794L16 18.784l6.804-3.99.186.293a8.382 8.382 0 01-1.125 10.392 8.259 8.259 0 01-11.729 0A8.382 8.382 0 019.01 15.087l.186-.293z" fill="#fff"/></g><defs><clipPath id="clip0_411_6330"><rect width="32" height="32" rx="16" fill="#fff"/></clipPath></defs></svg></g></svg>