<svg width="40" height="40" viewBox="0 0 40 40" fill="none" xmlns="http://www.w3.org/2000/svg"><rect fill="#B3262C" width="40" height="40" rx="12"/><g transform="translate(4 4)"><circle cx="16" cy="16" r="14" fill="#fff"/><svg width="32" height="32" viewBox="0 0 32 32" xmlns="http://www.w3.org/2000/svg"><path d="M16 32c8.837 0 16-7.163 16-16S24.837 0 16 0 0 7.163 0 16s7.163 16 16 16z" fill="#B3262C"/><path fill-rule="evenodd" clip-rule="evenodd" d="M7.5 10h.032l2.992 6.36a1.5 1.5 0 001.232 2.618l3.42 7.269A1.499 1.499 0 0016 29a1.5 1.5 0 00.825-2.753l3.42-7.269a1.5 1.5 0 001.232-2.618L24.467 10h.032a1.5 1.5 0 10-1.3-2.25H8.8A1.5 1.5 0 107.5 10zm1.064-.155L11.46 16h.04c.328 0 .631.105.878.284l2.744-1.9-6.558-4.539zm4.384 7.26a1.502 1.502 0 01-.318 1.382L16 25.65l3.37-7.164a1.494 1.494 0 01-.318-1.381L16 14.993l-3.052 2.113zm6.674-.821c.247-.179.55-.284.878-.284h.04l2.896-6.155-6.558 4.54 2.744 1.899zm3.43-7.39a1.493 1.493 0 01-.031-.144H8.979a1.49 1.49 0 01-.031.144L16 13.777l7.052-4.883z" fill="#fff"/></svg></g></svg>