<svg width="40" height="40" viewBox="0 0 40 40" fill="none" xmlns="http://www.w3.org/2000/svg">
  <rect fill="#483E5E" width="40" height="40" rx="12" />
  <g transform="translate(4 4)">
    <circle cx="16" cy="16" r="14" fill="#fff" /><svg width="32" height="32" viewBox="0 0 32 32"
      xmlns="http://www.w3.org/2000/svg">
      <path d="M16 32c8.837 0 16-7.163 16-16S24.837 0 16 0 0 7.163 0 16s7.163 16 16 16z" fill="#483E5E" />
      <path fill-rule="evenodd" clip-rule="evenodd"
        d="M22.194 8.484c0 .132-.257.32-.49.463-.232.143-.464.282-.722.132a3.074 3.074 0 00-.671-.307 3.468 3.468 0 00-.543-.1c-.183-.022-.217-.214-.264-.473l-.018-.102a6.234 6.234 0 00-.021-.103c-.073-.351-.204-.982.244-.929.497.06 1.256.447 1.805.789.55.341.68.499.68.63zM16.318 9.78c.271-.695.41-.949.77-1.385.36-.436.639-.56.984-.672.33-.107.531-.075.588.129.056.203.123.64.123.768v.016c0 .121.001.227-.276.496-.289.283-.506.677-.506 1.236 0 .56.135.784.473 1.179.337.394 1.022.55 1.53.499.506-.05.885-.246 1.167-.63.283-.386.385-.83.411-1.18.021-.291.149-.382.426-.58.057-.04.12-.086.19-.139.411-.308.668-.487.872-.47.205.016.307.043.847.243.535.197.842.402.998.506l.005.003c.154.103.076.183-.155.337-.087.058-.186.12-.29.186-.175.11-.363.23-.53.35a10.29 10.29 0 01-.318.214c-.231.153-.443.292-.557.43-.287.348-.385.73-.231 1.231.096.312.225.504.422.796.119.178.263.392.44.692.804 1.368.527 3.539-.168 5.078-.694 1.539-2.004 2.693-3.34 3.36-1.334.667-2.463.949-3.593 1-1.13.051-1.977-.077-2.362-.205s-.752-.76.365-1.017c1.117-.256 1.89-.452 3.019-1.272 1.13-.82 1.774-1.655 2.236-2.553.462-.897.51-1.836.304-2.323-.206-.488-.85-.963-1.75-1.296-.898-.334-1.563-.63-2.18-1.012-.583-.36-.838-.889-.71-1.504.128-.616.444-1.61.796-2.511zm2.8 1.249c.33.327 1.098.33 1.428-.033.329-.364.329-1.001 0-1.293-.33-.29-.988-.437-1.427-.036-.44.4-.33 1.034 0 1.362zm-7.12 8.07c-.13.034-.23.212-.42.555-.055.098-.117.21-.19.336-.327.565-.633.978-1.218 1.608-.585.63-.952.891-1.882 1.456l-.024.015c-.911.553-1.179.715-1.242.883-.064.168-.027.39.657.495.684.105 1.254.128 2.242-.546.267-.182.518-.362.764-.538.661-.475 1.276-.916 2.023-1.265.691-.323 1.062-.414 1.583-.542.25-.062.535-.132.908-.24 1.146-.335 2.191-.99 2.912-1.788.721-.797 1.082-1.6 1.228-2.056.146-.457.167-1.065-.223-1.37-.373-.29-.574-.377-1.397-.682l-.214-.079c-.713-.261-1.007-.37-1.596-.832a7.33 7.33 0 01-.43-.367c-.2-.18-.268-.242-.523-.276-.381-.05-.67.514-.8.797-.096.213-.113.588.144.942l.066.092c.235.329.49.685 1.132 1.046.702.395 1.03.458 1.509.537.48.08.666.192.538.417-.13.225-.387.334-.825.334-.438 0-1.056-.2-1.674-.56a3.462 3.462 0 01-.974-.822c-.22-.275-.353-.315-.558-.315-.205 0-.373.128-.618.489-.245.36-.426.75-.451.96-.026.212-.05.447.337.73s.72.437 1.158.514c.438.077.771.212.45.501-.32.29-.709.226-1.018.148-.31-.077-.758-.316-.927-.425l-.044-.028c-.146-.095-.252-.163-.403-.124z"
        fill="#fff" />
    </svg>
  </g>
</svg>