<svg width="40" height="40" viewBox="0 0 40 40" fill="none" xmlns="http://www.w3.org/2000/svg"><rect fill="#000D2B" width="40" height="40" rx="12"/><g transform="translate(4 4)"><circle cx="16" cy="16" r="14" fill="#fff"/><svg width="32" height="32" viewBox="0 0 32 32" xmlns="http://www.w3.org/2000/svg"><path fill-rule="evenodd" clip-rule="evenodd" d="M0 16C0 7.163 7.163 0 16 0s16 7.163 16 16-7.163 16-16 16S0 24.837 0 16z" fill="#000D2B"/><path d="M15.439 7l-4.432 2.452 4.432 2.454 4.515-2.454L15.439 7zm.729 13.094V25l6.02-3.244V16.85l-6.02 3.244zm4.515-9.1v4.907l-4.516 2.454v-4.907l4.516-2.453zm-10.87 4.907l4.516 2.454v-4.907l-4.517-2.453V15.9zm0 6.647L14.329 25v-4.906l-4.517-2.452v4.905z" fill="#fff"/></svg></g></svg>