<svg width="40" height="40" viewBox="0 0 40 40" fill="none" xmlns="http://www.w3.org/2000/svg"><rect fill="#EFB38B" width="40" height="40" rx="12"/><g transform="translate(4 4)"><circle cx="16" cy="16" r="14" fill="#fff"/><svg width="32" height="32" viewBox="0 0 32 32" xmlns="http://www.w3.org/2000/svg"><path d="M16 32c8.837 0 16-7.163 16-16S24.837 0 16 0 0 7.163 0 16s7.163 16 16 16z" fill="#EFB38B"/><path fill-rule="evenodd" clip-rule="evenodd" d="M16 2.85C8.737 2.85 2.85 8.737 2.85 16c0 7.262 5.887 13.15 13.15 13.15 7.262 0 13.15-5.887 13.15-13.15 0-7.263-5.887-13.15-13.15-13.15zM7.058 23.754h5.031l3.527 2.74v1.882C8.956 28.173 3.618 22.71 3.618 16c0-6.71 5.337-12.173 11.998-12.376v1.892L6.959 12.35a.618.618 0 00-.235.485v6.448c0 .19.088.371.239.488l.972.756-1.404 2.285a.618.618 0 00.527.943zm9.326-18.24v-1.89C23.044 3.827 28.381 9.29 28.381 16c0 6.71-5.336 12.173-11.997 12.376v-1.88l3.58-2.742h4.98a.618.618 0 00.53-.94l-1.359-2.242 1.045-.8a.619.619 0 00.242-.491v-6.446a.618.618 0 00-.238-.488l-8.78-6.832zm-8.618 7.177l8.236-6.5 8.351 6.5-3.377 2.7-4.447-7.34a.619.619 0 00-1.058 0l-4.405 7.271-3.3-2.63zm8.385 6.686l-4.48-3.572L16 8.66l4.371 7.216-.043.035.267.334 4.083 6.74h-8.294v-3.124a.618.618 0 00-.233-.484zm7.564.534l-2.337-3.857 3.256-2.604v5.757l-.92.704zm-16.223-.703v-5.752l8.124 6.477v5.588l-8.124-6.313zm-.165 3.777L8.546 21l2.554 1.985H7.327zm9.057 2.543v-1.774H18.7l-2.316 1.774z" fill="#fff"/></svg></g></svg>