<svg width="40" height="40" viewBox="0 0 40 40" fill="none" xmlns="http://www.w3.org/2000/svg"><rect fill="#5D5FEF" width="40" height="40" rx="12"/><g transform="translate(4 4)"><circle cx="16" cy="16" r="14" fill="#fff"/><svg width="32" height="32" viewBox="0 0 32 32" xmlns="http://www.w3.org/2000/svg"><path d="M16 32c8.837 0 16-7.163 16-16S24.837 0 16 0 0 7.163 0 16s7.163 16 16 16z" fill="#5D5FEF"/><path d="M24.025 7.111l.006-1.465V5l-.536.374-.2.132c-.949.655-1.903 1.304-2.86 1.946a167.613 167.613 0 01-4.671 3.035l-.01-.338a5.185 5.185 0 00-.288-1.46 4.098 4.098 0 00-.31-.672c-.31-.54-.73-.96-1.246-1.246a3.777 3.777 0 00-1.385-.442c-1.59-.18-3.088.662-3.731 2.094l-.044.1-.001.004a3.497 3.497 0 00-.242.947c-.157 1.425.567 2.806 1.844 3.516a3.891 3.891 0 001.37.44 4.118 4.118 0 001.738-.254c.233-.089.597-.272 1.089-.548-.013 3.196-.204 8.473-.204 8.473-.077 1.56-.166 2.642-.249 2.962a2.724 2.724 0 01-.393.845 1.757 1.757 0 01-.12.154l-.01.012c-.221.221-.482.4-.768.526a2.553 2.553 0 01-1.057.21 2.623 2.623 0 01-1.663-.61c-.858-.722-1.089-1.918-.547-2.844.087-.148.191-.287.31-.412.223-.234.491-.42.788-.547.127-.055.433-.162.874-.162.175 0 .35.016.522.048l.014.002c.25.047.494.121.727.223l.682-.992a5.616 5.616 0 00-.819-.304 4.407 4.407 0 00-1.16-.173 3.36 3.36 0 00-1.373.27c-.445.191-.848.47-1.182.822a3.405 3.405 0 00-.439.57c-.648 1.06-.641 2.394.019 3.48.207.342.47.648.777.905a3.937 3.937 0 002.48.914h.048a3.837 3.837 0 001.53-.314 3.767 3.767 0 001.172-.808c.023-.025.557-.605.794-1.504.26-.982.422-6.045.443-10.31.004-.726.003-1.445 0-2.14 1.664-1.012 3.983-2.52 6.56-4.27l.5-.34c0 2.357-.03 4.847-.081 7.019l-.007.243c-.02.833-.076 2.402-.076 2.402-.063 1.548-.137 2.585-.21 2.901l-.004.016a2.62 2.62 0 01-.509.995 2.55 2.55 0 01-.782.541 2.64 2.64 0 01-2.72-.4c-.74-.621-1.025-1.586-.725-2.456a2.19 2.19 0 01.488-.8c.206-.217.452-.392.723-.517l.017-.008.048-.022a1.89 1.89 0 01.315-.1c.184-.042.372-.063.56-.062.368.003.732.07 1.077.199.06.021.122.048.183.074l.683-.992a5.543 5.543 0 00-.817-.303c-.926-.261-1.779-.229-2.534.097-.445.19-.848.47-1.182.821a3.286 3.286 0 00-.915 2.475c.055.957.508 1.837 1.273 2.48a3.915 3.915 0 002.826.903 3.837 3.837 0 001.233-.303 3.71 3.71 0 001.142-.777l.029-.03s.03-.032.078-.092l.032-.04.034-.044a4.017 4.017 0 00.332-.523c.136-.255.243-.525.318-.805.105-.4.195-1.35.268-2.829.08-1.642.132-3.816.143-6.122.008-1.381.001-2.775-.02-4.144zM13.03 12.042l-.025.01-.063.022-.012.004-.054.018-.017.005-.072.021-.084.022a2.68 2.68 0 01-.134.03l-.08.014-.062.01-.01.002-.066.009c-.04.004-.077.009-.117.012l-.162.01h-.085l-.097-.002v.002l-.01-.001-.004-.001-.012-.001a2.414 2.414 0 01-.4-.083l-.049-.014a2.518 2.518 0 01-.1-.033l-.01-.004a2.292 2.292 0 01-.105-.04l-.023-.01a2.438 2.438 0 01-.912-.67 2.355 2.355 0 01-.544-1.77 2.306 2.306 0 01.885-1.574 2.43 2.43 0 011.78-.5c.326.038.64.138.926.296.268.149 1.149.761 1.221 2.37l.004.644.002.39c-.9.534-1.315.737-1.509.812z" fill="#fff"/></svg></g></svg>