<svg width="40" height="40" viewBox="0 0 40 40" fill="none" xmlns="http://www.w3.org/2000/svg"><rect fill="#F00500" width="40" height="40" rx="12"/><g transform="translate(4 4)"><circle cx="16" cy="16" r="14" fill="#fff"/><svg width="32" height="32" viewBox="0 0 32 32" xmlns="http://www.w3.org/2000/svg"><g clip-path="url(#clip0_263:1290)"><circle cx="16" cy="16" r="16" fill="#F00500"/><path d="M22.108 17.022c-.01.056-.173.222-.337.344-.48.351-1.339.678-2.212.835-.497.09-.994.104-1.144.031-.097-.049-.111-.087-.076-.212.073-.26.31-.546.678-.814.188-.135.95-.598 1.304-.793.584-.32 1.057-.51 1.377-.556.101-.014.223-.018.26 0 .064.024.133.209.16.431.015.118.008.64-.01.734zM13.915 18.173c-.02.042-.125.087-.243.104-.119.018-.48.007-.685-.017-.738-.098-1.52-.324-2.09-.602-.32-.156-.55-.313-.72-.483l-.098-.101-.01-.132c-.018-.23-.014-.591.014-.72a.945.945 0 01.108-.306c.027-.035.027-.035.153-.035.153 0 .281.024.49.09.428.133 1.064.453 1.84.919.64.382.88.57 1.064.827.125.16.208.386.177.456zM18.84 23.014c0 .01-.042.177-.094.375-.053.199-.094.358-.094.366-.039.003-.073.007-.112.003h-.11l-.154.362c-.083.198-.16.382-.17.41l-.021.049-.073-.119-.073-.118v-.963l-.028.007c-.06.014-.48.07-.664.087a9.479 9.479 0 01-2.285-.049 2.316 2.316 0 00-.23-.028c-.003.004 0 .226.007.501l.01.494-.058.09c-.032.049-.063.09-.063.094-.01.01-.045-.045-.125-.205a2.345 2.345 0 01-.195-.529l-.024-.1-.108.006-.108.011-.028-.129a3.639 3.639 0 01-.038-.236l-.01-.111-.09-.08-.115-.098c-.018-.014-.025-.038-.025-.059v-.042l.435.004.435.003.013.045.014.046.15.007.584.017.435.01.111-.173.115-.174h.146l-.003-.362-.004-.362-.191-.083c-.616-.271-.977-.58-1.113-.956-.028-.077-.028-.105-.035-.452-.003-.345-.003-.376.021-.453a.505.505 0 01.358-.354c.06-.018.216-.018 1.037-.018l.966.004.108.052a.604.604 0 01.26.205c.084.111.109.198.109.41 0 .303-.021.564-.052.668a1.442 1.442 0 01-.202.4c-.174.223-.49.445-.78.546l-.083.031.004.366.003.365.077.007.076.007.105.156.1.157h.467c.257 0 .483.003.504.006.035.008.042.004.076-.055l.042-.063h.4c.3-.014.39-.007.39.004z" fill="#000"/><path d="M17.003 24.012c-.066.038-.111.055-.121.049-.01-.004-.06-.046-.112-.084l-.094-.076-.097.104c-.212.23-.22.24-.282.243-.097.01-.118-.007-.236-.184-.063-.09-.111-.167-.111-.167s-.046-.007-.098-.01l-.097-.01-.045.093-.046.094-.08-.024a1.682 1.682 0 01-.184-.073l-.104-.052v-.199l.925.004.925.003.003.094c.004.111.007.108-.146.195z" fill="#000"/><path d="M25.697 19.77c-.003-.015-.003-.04-.006-.077a7.395 7.395 0 00-5.43 1.68s-.712-3.27-4.05-3.27c-3.34 0-4.577 3.27-4.577 3.27-1.871-2.014-4.375-1.868-5.28-1.736l-.003.066c-.028.504-.014.744.07 1.06.26.992 1.064 2.084 2.323 3.155 2.062 1.753 4.858 3.018 6.976 3.165 2.208.15 5.467-1.141 7.637-3.026.34-.302.66-.622.96-.963.215-.25.535-.682.511-.682-.007 0 0-.007.014-.014.01-.007.02-.017.014-.024-.004-.004.003-.014.014-.017.01-.004.017-.01.014-.018-.004-.007 0-.014.014-.017.01-.004.014-.014.01-.021-.004-.007 0-.014.007-.014s.014-.01.014-.017c0-.007.007-.018.014-.018s.014-.007.014-.014a.362.362 0 01.045-.08c.052-.08.26-.452.289-.514.198-.449.323-.849.382-1.249.021-.191.038-.542.024-.626zm-8.694 4.242c-.066.038-.111.055-.121.049-.01-.004-.06-.046-.112-.084l-.094-.076-.097.104c-.212.23-.22.24-.282.243-.097.01-.118-.007-.236-.184-.063-.09-.111-.167-.111-.167s-.046-.007-.098-.01l-.097-.01-.045.093-.046.094-.08-.024a1.682 1.682 0 01-.184-.073l-.104-.052v-.199l.925.004.925.003.003.094c.004.111.007.108-.146.195zm1.74-.626c-.053.198-.095.358-.095.365-.038.003-.073.007-.111.003h-.111l-.15.366c-.083.198-.16.382-.17.41l-.021.049-.073-.119-.073-.118v-.963l-.028.007c-.06.014-.48.07-.664.087a9.479 9.479 0 01-2.285-.049 2.351 2.351 0 00-.23-.028c-.003.004 0 .226.007.501l.01.494-.058.09c-.032.049-.063.09-.063.094-.01.01-.045-.045-.125-.205a2.349 2.349 0 01-.195-.529l-.024-.1-.108.007-.108.01-.028-.129a3.628 3.628 0 01-.038-.236l-.01-.111-.09-.08a3.268 3.268 0 00-.115-.098c-.018-.014-.025-.038-.025-.059v-.042l.435.004.435.003.013.045.014.046.15.007.584.017.435.01.111-.173.115-.174h.146l-.003-.362-.004-.362-.191-.083c-.616-.271-.977-.58-1.113-.956-.028-.077-.028-.105-.035-.452-.003-.345-.003-.376.021-.453a.505.505 0 01.358-.354c.06-.018.216-.018 1.037-.018l.966.004.108.052a.605.605 0 01.26.205c.084.111.109.198.109.41 0 .303-.021.564-.052.668a1.442 1.442 0 01-.202.4c-.174.223-.49.445-.78.546l-.083.031.004.366.003.365.077.007.076.007.105.156.1.157h.467c.257 0 .483.003.504.006.035.008.042.004.076-.055l.042-.063h.4c.31 0 .4.004.4.014-.01-.003-.056.167-.108.362z" fill="#fff"/><path d="M25.67 19.415c-.007-.157-.021-.376-.032-.484-.15-1.579-.553-2.869-1.318-4.236a1.205 1.205 0 01-.076-.146c-.007-.01-.01-.02-.014-.027.108-.324.55-1.677.9-3.224.477-2.1.78-4.556-.145-5.293 0 0-1.6-.118-3.742 1.982-.581.58-1.113 1.21-1.586 1.881l-.15-.048a10.855 10.855 0 00-2.657-.515c-.271-.02-1.283-.02-1.613 0-.998.066-1.764.216-2.633.518a1.696 1.696 0 01-.097.035 14.155 14.155 0 00-1.638-1.868C8.639 5.88 6.98 6.002 6.98 6.002 6 6.763 6.334 9.33 6.84 11.5c.334 1.437.745 2.699.898 3.155a.784.784 0 01-.038.076c-.81 1.642-1.249 3.224-1.353 4.907.907-.132 3.408-.282 5.282 1.735 0 0 1.238-3.269 4.577-3.269 3.338 0 4.051 3.27 4.051 3.27a7.412 7.412 0 015.429-1.68l-.017-.279zM8.396 13.343s-1.3-3.252-.967-5.11c.056-.312.16-.587.324-.795 0 0 1.474.146 3.853 2.789 0 0-.452.219-1.057.685 0 0-.004.003-.007.003a8.361 8.361 0 00-2.146 2.428zm5.52 4.83c-.022.042-.126.087-.244.104-.119.018-.48.007-.685-.017-.738-.098-1.52-.324-2.09-.602-.32-.156-.55-.313-.72-.483l-.098-.101-.01-.132c-.018-.23-.014-.591.014-.72a.944.944 0 01.108-.306c.027-.035.027-.035.153-.035.153 0 .281.024.49.09.428.133 1.064.453 1.84.919.64.382.88.57 1.064.827.125.16.208.386.177.456zm8.192-1.151c-.01.056-.173.222-.337.344-.48.351-1.339.678-2.212.835-.497.09-.994.104-1.144.031-.097-.049-.111-.087-.076-.212.073-.26.31-.546.678-.814.188-.136.95-.598 1.304-.793.584-.32 1.057-.51 1.377-.556.101-.014.223-.018.261 0 .063.024.132.209.16.431.014.118.007.64-.01.734zm-.577-6.11l-.007-.004c-.584-.466-1.022-.685-1.022-.685 2.299-2.643 3.72-2.789 3.72-2.789.157.212.258.483.314.796.323 1.857-.932 5.112-.932 5.112a8.284 8.284 0 00-2.073-2.43z" fill="#FFA409"/><path d="M24.54 8.23c-.272-.034-1.555-.041-3.009 2.682l-.007-.004c-.584-.466-1.022-.685-1.022-.685 2.299-2.643 3.72-2.789 3.72-2.789.16.212.262.483.317.796z" fill="#FF9300"/><path d="M23.607 13.343a8.25 8.25 0 00-2.076-2.431c1.454-2.723 2.734-2.716 3.008-2.682.324 1.861-.932 5.113-.932 5.113zM24.591 8.24l-.052-.01.052.01z" fill="#FF8300"/><path d="M11.606 10.223s-.452.22-1.057.685c0 0-.004.004-.007.004C9.036 8.185 7.71 8.196 7.426 8.23c.055-.313.16-.587.323-.796.004 0 1.478.146 3.857 2.79z" fill="#FF9300"/><path d="M10.545 10.912a8.336 8.336 0 00-2.149 2.43s-1.3-3.251-.967-5.112c.282-.034 1.61-.041 3.116 2.682z" fill="#FF8300"/><path d="M7.43 8.23l-.056.01.055-.01z" fill="#FF8300"/><path d="M20.088 15.148s-1.113.069-.974-.8c.14-.87 1.009-.974 1.252-.94.244.035 1.217.383 1.044 1.114-.174.73-.418.59-.557.626-.139.034-.765 0-.765 0zM11.88 15.148s-1.112.069-.973-.8c.14-.87 1.008-.974 1.252-.94.243.035 1.217.383 1.043 1.114-.174.73-.417.59-.556.626-.14.034-.765 0-.765 0z" fill="#fff"/></g><defs><clipPath id="clip0_263:1290"><rect width="32" height="32" rx="16" fill="#fff"/></clipPath></defs></svg></g></svg>