<svg width="40" height="40" viewBox="0 0 40 40" fill="none" xmlns="http://www.w3.org/2000/svg"><rect fill="#020203" width="40" height="40" rx="12"/><g transform="translate(4 4)"><circle cx="16" cy="16" r="14" fill="#fff"/><svg width="32" height="32" viewBox="0 0 32 32" xmlns="http://www.w3.org/2000/svg"><circle cx="16" cy="16" r="16" fill="#020203"/><path d="M12.14 16.017a1.97 1.97 0 11.573-1.949 53.492 53.492 0 001.272 2.282c.448.752.92 1.482 1.34 2.017.211.269.393.465.536.588l.052.043c.018-.013.038-.03.061-.049a4.53 4.53 0 00.558-.592c.438-.536.931-1.268 1.401-2.02a52.236 52.236 0 001.377-2.349 1.971 1.971 0 11.513 1.994c-.21.355-.437.734-.674 1.114-.481.77-1.012 1.56-1.507 2.167-.245.3-.5.578-.75.787-.216.18-.564.427-.982.427-.42 0-.767-.25-.98-.433a5.67 5.67 0 01-.731-.791c-.478-.608-.987-1.4-1.445-2.17a45.787 45.787 0 01-.614-1.066z" fill="#fff"/><path fill-rule="evenodd" clip-rule="evenodd" d="M28 16c0 6.627-5.372 12-12 12-6.627 0-12-5.373-12-12S9.373 4 16 4c6.628 0 12 5.373 12 12zm-3.224-.873c0 4.834-3.93 8.754-8.776 8.754-4.847 0-8.776-3.92-8.776-8.754 0-4.835 3.93-6.829 8.776-6.829 4.847 0 8.776 1.994 8.776 6.829z" fill="#fff"/></svg></g></svg>