<svg width="40" height="40" viewBox="0 0 40 40" fill="none" xmlns="http://www.w3.org/2000/svg"><rect fill="#FC0A54" width="40" height="40" rx="12"/><g transform="translate(4 4)"><circle cx="16" cy="16" r="14" fill="#fff"/><svg width="32" height="33" viewBox="0 0 32 33" xmlns="http://www.w3.org/2000/svg"><path d="M32 16.006C32 7.17 24.837.008 16.002.008 7.166.008.004 7.17.004 16.006c0 8.835 7.162 15.998 15.998 15.998C24.837 32.004 32 24.84 32 16.006z" fill="#FC0A54"/><path d="M15.962 9.767L2.204 24.125s-.182-.321-.353-.64a13.118 13.118 0 01-.207-.4c-.077-.157-.098-.171-.16-.32a4.64 4.64 0 01-.16-.36l-.04-.12L15.962 6.927l9.279 9.599-9.36 10.038-1.439-1.36 8.04-8.678-6.52-6.76z" fill="#fff"/></svg></g></svg>