
      <svg width="40" height="40" viewBox="0 0 40 40" fill="none" xmlns="http://www.w3.org/2000/svg">
        <rect fill="#1A5AFF" x="0" y="0" width="40" height="40" rx="12"></rect>
        <g transform="translate(4,4)">
          <circle cx="16" cy="16" r="14" fill="#ffffff" />
          <svg width="32" height="32" viewBox="0 0 32 32" fill="none" xmlns="http://www.w3.org/2000/svg">
<path d="M16 32C24.8366 32 32 24.8366 32 16C32 7.16344 24.8366 0 16 0C7.16344 0 0 7.16344 0 16C0 24.8366 7.16344 32 16 32Z" fill="#1A5AFF"/>
<path d="M5 20.8276L8.76444 23L14.3989 13.3448H18.0778V9H13.14C12.3456 9 11.6244 9.41034 11.2333 10.0862L5 20.8276Z" fill="white"/>
<path d="M20.0822 10.0983C20.4856 9.42241 21.2189 9 22.0133 9H27V13.3448H23.2967L18.2978 21.9017C17.9067 22.5776 17.1733 23 16.3789 23H11.3678V18.6552H15.0956L20.0822 10.0983Z" fill="white"/>
<path d="M5.36667 9V13.3448C7.79889 13.3448 9.76667 11.4017 9.76667 9H5.36667Z" fill="white"/>
<path d="M27 18.1724C27 19.3672 26.01 20.3448 24.8 20.3448C23.59 20.3448 22.6 19.3672 22.6 18.1724C22.6 16.9776 23.59 16 24.8 16C26.0222 16 27 16.9776 27 18.1724Z" fill="white"/>
</svg>

        </g>
      </svg>