<svg width="40" height="40" viewBox="0 0 40 40" fill="none" xmlns="http://www.w3.org/2000/svg"><rect fill="#1C68F3" width="40" height="40" rx="12"/><g transform="translate(4 4)"><circle cx="16" cy="16" r="14" fill="#fff"/><svg width="32" height="32" viewBox="0 0 32 32" xmlns="http://www.w3.org/2000/svg"><g clip-path="url(#clip0_261:1075)"><circle cx="16" cy="16" r="16" fill="#1C68F3"/><path d="M16 30c7.732 0 14-6.268 14-14S23.732 2 16 2 2 8.268 2 16s6.268 14 14 14z" fill="#1C68F3"/><path fill-rule="evenodd" clip-rule="evenodd" d="M24.4 12.733V17.4H9.798a6.35 6.35 0 0011.888 1.4H24.4v3.92a1.68 1.68 0 01-1.68 1.68H9.28a1.68 1.68 0 01-1.68-1.68v-9.987h16.8zM20.075 18.8a4.941 4.941 0 01-4.086 2.157 4.942 4.942 0 01-4.086-2.157h8.172zm-7.668-4.947a2.614 2.614 0 00-2.587 2.24h1.432a1.214 1.214 0 012.31 0h1.431a2.614 2.614 0 00-2.586-2.24zm7.186 0a2.614 2.614 0 00-2.587 2.24h1.433a1.214 1.214 0 012.31 0h1.431a2.614 2.614 0 00-2.587-2.24zM22.72 7.6c.928 0 1.68.752 1.68 1.68v2.053H7.6V9.28c0-.928.752-1.68 1.68-1.68h13.44z" fill="#fff"/></g><defs><clipPath id="clip0_261:1075"><rect width="32" height="32" rx="16" fill="#fff"/></clipPath></defs></svg></g></svg>