<svg width="40" height="40" viewBox="0 0 40 40" fill="none" xmlns="http://www.w3.org/2000/svg"><rect fill="#00D395" width="40" height="40" rx="12"/><g transform="translate(4 4)"><circle cx="16" cy="16" r="14" fill="#fff"/><svg width="32" height="32" viewBox="0 0 32 32" xmlns="http://www.w3.org/2000/svg"><path fill-rule="evenodd" clip-rule="evenodd" d="M0 16C0 7.163 7.163 0 16 0s16 7.163 16 16-7.163 16-16 16S0 24.837 0 16z" fill="#00D395"/><g clip-path="url(#clip0)"><path fill-rule="evenodd" clip-rule="evenodd" d="M7.555 21.96a1.777 1.777 0 01-.888-1.525v-3.47a.72.72 0 01.106-.375.789.789 0 011.058-.268l8.129 4.566c.475.268.768.756.768 1.287v3.596a.877.877 0 01-.136.467.949.949 0 01-1.277.297l-7.76-4.575zm12.117-6.589c.475.268.768.757.768 1.288v7.295a.59.59 0 01-.315.52l-1.78.965a.37.37 0 01-.071.028v-4.05c0-.525-.286-1.01-.753-1.281l-7.14-4.115v-4.573a.72.72 0 01.106-.374.789.789 0 011.059-.268l8.126 4.565zm3.558-5.388c.477.265.77.759.77 1.29v10.656c0 .218-.125.42-.325.524l-1.686.878v-7.419c0-.524-.286-1.008-.751-1.278l-7.297-4.217V6.079c0-.133.037-.26.104-.375a.792.792 0 011.058-.27l8.127 4.549z" fill="#fff"/></g><defs><clipPath id="clip0"><path fill="#fff" transform="translate(5.333 5.333)" d="M0 0h21.333v21.333H0z"/></clipPath></defs></svg></g></svg>