<svg width="40" height="40" viewBox="0 0 40 40" fill="none" xmlns="http://www.w3.org/2000/svg"><rect fill="#FA52A0" width="40" height="40" rx="12"/><g transform="translate(4 4)"><circle cx="16" cy="16" r="14" fill="#fff"/><svg width="32" height="32" viewBox="0 0 32 32" xmlns="http://www.w3.org/2000/svg"><path d="M16 32c8.837 0 16-7.163 16-16S24.837 0 16 0 0 7.163 0 16s7.163 16 16 16z" fill="#FA52A0"/><path d="M23.236 15.89c-.744 1.082-3.294.54-5.845-1.192-2.444-1.732-3.931-4.005-3.187-5.088.743-1.083 3.294-.541 5.844 1.19 2.444 1.733 3.932 4.007 3.188 5.09z" fill="#fff"/><path fill-rule="evenodd" clip-rule="evenodd" d="M28 19.35l-.004.006c-.052.076-.098.146-.146.22-.09.14-.188.29-.357.513l-4.15 6.041c-.92 1.23-2.804 1.532-4.999 1.13-2.217-.405-4.85-1.543-7.397-3.342-2.529-1.785-4.531-3.82-5.724-5.73-1.18-1.89-1.613-3.74-.821-5.083l.004-.007 4.58-6.727c.889-1.278 2.778-1.607 4.986-1.216 2.23.395 4.888 1.537 7.46 3.352 2.623 1.716 4.65 3.79 5.835 5.74.593.974.98 1.927 1.12 2.794.139.869.032 1.668-.387 2.31zM8.77 21.54c.744.674 1.57 1.337 2.466 1.97 2.502 1.765 5.067 2.868 7.199 3.259 2.151.394 3.766.049 4.506-.934l3.752-5.463c-1.07.247-2.443.129-3.95-.293-.477.712-1.04 1.209-1.692 1.724-1.114.881-2.9.4-4.2-1.3-1.3-1.7-2.1-2.4-2.8-2.4-.7-.1-1.5.3-3.1 2-.768.854-1.537 1.27-2.181 1.436zm18.38-1.842l.008-.003.426-.62c.33-.509.436-1.171.31-1.954-.127-.786-.483-1.677-1.053-2.615-1.14-1.875-3.111-3.9-5.686-5.583l-.007-.005c-2.527-1.784-5.118-2.89-7.262-3.27-1.891-.336-3.359-.096-4.174.65l-.04.073c-.33.475-.25 1.117-.106 1.866.144.75.526 1.61 1.124 2.528 1.195 1.835 3.225 3.86 5.802 5.648h.003c2.117 1.5 4.267 2.557 6.153 3.119 1.897.564 3.483.616 4.503.166zM8.537 8.873A.25.25 0 108.052 9c.016.064.035.13.056.199.07.223.162.471.279.738a.25.25 0 00.458-.2 6.599 6.599 0 01-.259-.685 4.165 4.165 0 01-.05-.178zm.76 1.773a.25.25 0 00-.455.207c.357.786 1.174 1.934 2.33 3.168a24.992 24.992 0 004.442 3.738.25.25 0 10.275-.418 24.494 24.494 0 01-4.353-3.662c-1.14-1.216-1.914-2.319-2.238-3.033z" fill="#fff"/></svg></g></svg>