<svg width="40" height="40" viewBox="0 0 40 40" fill="none" xmlns="http://www.w3.org/2000/svg"><rect fill="#1E78B4" width="40" height="40" rx="12"/><g transform="translate(4 4)"><circle cx="16" cy="16" r="14" fill="#fff"/><svg width="32" height="32" viewBox="0 0 32 32" xmlns="http://www.w3.org/2000/svg"><path d="M16 32c8.837 0 16-7.163 16-16S24.837 0 16 0 0 7.163 0 16s7.163 16 16 16z" fill="#1E78B4"/><path d="M21.378 4l-2.026.819 1.724 1.078 2.026-1.078L21.378 4zM19.654 8.224l1.552.905 1.896-.905-1.465-.819-1.983.82zM17.154 8.224l-2.198.862 1.983.949L18.879 9l-1.725-.776zM18.232 10.035l-2.199.905 1.724 1.034 2.199-1.034-1.724-.905zM15.473 6.155l1.81-.733 1.38.82-1.94.818-1.25-.905zM13.662 7.491l-2.457.863 1.81.862 2.285-.862-1.638-.863zM11.264 9.116l-2.443.797 1.75.951 2.476-.848-1.783-.9zM8.414 10.045l-2.4.783 1.676 1.024 2.449-.84-1.725-.967zM6 21.479v-10.09l8.826 5.803V28L6 21.479zM15.688 27.71l10.034-5.283V11.935l-10.034 4.977V27.71zM22.941 10.278l2.746 1.143-2.15.991-2.644-1.159 2.048-.975zM10.905 11.046l2.484-.857 1.94.977-2.366.998-2.058-1.118zM15.637 11.322l-2.321 1.034 2.013 1.094 2.36-1.093-2.052-1.035zM15.709 13.656l2.379-1.098 2.45 1.236-2.475 1.141-2.354-1.279zM20.92 13.618l2.105-.97-2.552-1.19-1.987.916 2.435 1.244zM17.555 15.17l-2.314-1.298-2.419 1.116 2.22 1.357v-.017l2.513-1.159zM14.868 13.663L12.88 12.55l-2.343 1.044 1.932 1.18 2.398-1.11zM12.524 12.35l-2.057-1.153-2.46.849 2.139 1.307 2.378-1.003z" fill="#fff"/></svg></g></svg>