<svg width="40" height="40" viewBox="0 0 40 40" fill="none" xmlns="http://www.w3.org/2000/svg"><rect fill="#245AE5" width="40" height="40" rx="12"/><g transform="translate(4 4)"><circle cx="16" cy="16" r="14" fill="#fff"/><svg width="32" height="32" viewBox="0 0 32 32" xmlns="http://www.w3.org/2000/svg"><path d="M16 32c8.837 0 16-7.163 16-16S24.837 0 16 0 0 7.163 0 16s7.163 16 16 16z" fill="#245AE5"/><path fill-rule="evenodd" clip-rule="evenodd" d="M17.383 5.67l6.968 3.563A3.035 3.035 0 0126 11.946v1.649h-2.553v-1.65c0-.159-.107-.318-.266-.425l-6.968-3.564c-.107-.053-.266-.053-.426 0L8.82 11.52c-.16.053-.266.213-.266.426v1.649H6v-1.65c0-1.116.638-2.18 1.649-2.712l6.968-3.564c.851-.425 1.862-.425 2.766 0zm.798 10.212A2.19 2.19 0 0016 13.702c-1.223 0-2.18.957-2.18 2.18a2.19 2.19 0 002.18 2.18 2.19 2.19 0 002.18-2.18zm4.947 4.574c.16-.053.266-.212.266-.425v-1.65h2.553v1.65c0 1.117-.639 2.18-1.65 2.713l-6.967 3.564c-.426.212-.904.319-1.383.319s-.958-.107-1.383-.32l-6.915-3.563A3.035 3.035 0 016 20.03v-1.65h2.553v1.65c0 .16.107.319.266.425l5.904 2.98v-2.98c-2.02-.585-3.457-2.393-3.457-4.574 0-2.607 2.128-4.787 4.787-4.787 2.607 0 4.787 2.127 4.787 4.787 0 2.18-1.489 4.042-3.457 4.574v2.98l5.745-2.98z" fill="#fff"/></svg></g></svg>