<svg width="40" height="40" viewBox="0 0 40 40" fill="none" xmlns="http://www.w3.org/2000/svg"><rect fill="#E62249" width="40" height="40" rx="12"/><g transform="translate(4 4)"><circle cx="16" cy="16" r="14" fill="#fff"/><svg width="32" height="32" viewBox="0 0 32 32" xmlns="http://www.w3.org/2000/svg"><g clip-path="url(#clip0_308_5579)"><path d="M-4 8C-4 1.373 1.373-4 8-4h16c6.627 0 12 5.373 12 12v16c0 6.627-5.373 12-12 12H8C1.373 36-4 30.627-4 24V8z" fill="#E62249"/><path fill-rule="evenodd" clip-rule="evenodd" d="M16 6.2c5.412 0 9.8 4.388 9.8 9.8 0 5.412-4.388 9.8-9.8 9.8-5.412 0-9.8-4.388-9.8-9.8 0-1.942.564-3.75 1.538-5.273a2.2 2.2 0 10-.866-.867A10.952 10.952 0 005 16c0 6.075 4.925 11 11 11s11-4.925 11-11S22.075 5 16 5v1.2zM8.8 7.8a1 1 0 100 2 1 1 0 000-2z" fill="#fff"/><path d="M20.8 16a4.8 4.8 0 11-9.6 0 4.8 4.8 0 019.6 0z" fill="#fff"/></g><defs><clipPath id="clip0_308_5579"><rect width="32" height="32" rx="16" fill="#fff"/></clipPath></defs></svg></g></svg>