<svg width="40" height="40" viewBox="0 0 40 40" fill="none" xmlns="http://www.w3.org/2000/svg"><rect fill="#01B8FC" width="40" height="40" rx="12"/><g transform="translate(4 4)"><circle cx="16" cy="16" r="14" fill="#fff"/><svg width="32" height="32" viewBox="0 0 32 32" xmlns="http://www.w3.org/2000/svg"><circle cx="16" cy="16" r="16" fill="#01B8FC"/><path fill-rule="evenodd" clip-rule="evenodd" d="M23.913 23.693c.142-.163.285-.326.42-.496 3.422-3.78 3.99-10.83-.906-15.39a9.96 9.96 0 00-1.139-.785c2.108 1.8 2.639 3.111 3.038 4.91.681 3.171-1.28 7.447-2.402 8.958-2.146 2.899-5.06.302-3.26-2.097 1.313-1.733 4.027-6.234 3.044-9.245-.65-1.985-2.563-3.455-3.78-4.141-1.719-.44-3.264-.535-4.93-.228 2.45.708 3.098 1.215 3.863 1.813l.093.073c4.167 3.246 1.686 6.841-.204 9.582-.15.218-.297.43-.436.637-1.496 1.881-1.664 4.71.21 6.467 1.342 1.267 3.053 1.6 4.59 1.06a4.949 4.949 0 001.686-1.017l.019-.017.012-.017a.136.136 0 01.024-.02c.009-.007.017-.014.024-.022.003-.004.008-.007.014-.01a.037.037 0 00.014-.008l.006-.007zM8.093 8.3c-.144.165-.29.33-.426.502-3.421 3.78-3.99 10.831.906 15.392a9.98 9.98 0 001.138.784c-2.107-1.8-2.638-3.111-3.037-4.91-.682-3.171 1.28-7.447 2.402-8.958 2.146-2.899 5.06-.302 3.26 2.097-1.313 1.733-4.027 6.234-3.044 9.244.65 1.986 2.563 3.456 3.78 4.142 1.719.44 3.264.535 4.93.228-2.45-.708-3.099-1.215-3.864-1.813l-.092-.073c-4.167-3.246-1.687-6.841.204-9.582.15-.218.297-.43.436-.637 1.496-1.881 1.664-4.71-.21-6.467-1.342-1.267-3.053-1.6-4.59-1.06a4.952 4.952 0 00-1.683 1.014l-.022.02-.013.017a.131.131 0 01-.023.02c-.009.007-.017.014-.024.022-.003.004-.008.007-.014.01-.005.002-.01.004-.014.008z" fill="#fff"/></svg></g></svg>